<svg id="svg" version="1.1" xmlns="http://www.w3.org/2000/svg" xmlns:xlink="http://www.w3.org/1999/xlink" width="400" height="266.6666666666667" viewBox="0, 0, 400,266.6666666666667"><g id="svgg"><path id="path0" d="M194.133 62.800 L 194.133 63.467 189.467 63.467 L 184.800 63.467 184.800 64.126 L 184.800 64.786 180.867 64.860 C 177.016 64.932,176.932 64.946,176.848 65.533 C 176.766 66.112,176.663 66.133,173.969 66.133 C 171.331 66.133,171.140 66.171,170.557 66.800 C 170.008 67.392,169.724 67.467,168.024 67.467 C 166.346 67.467,166.028 67.548,165.455 68.121 C 164.911 68.665,164.495 68.789,163.000 68.854 C 161.428 68.923,161.167 69.009,160.937 69.533 C 160.717 70.035,160.465 70.133,159.403 70.133 C 158.226 70.133,158.133 70.182,158.133 70.800 C 158.133 71.422,158.044 71.467,156.800 71.467 C 155.556 71.467,155.467 71.511,155.467 72.133 C 155.467 72.667,155.333 72.800,154.800 72.800 C 154.267 72.800,154.133 72.933,154.133 73.467 C 154.133 74.030,154.009 74.133,153.333 74.133 C 152.307 74.133,151.467 74.974,151.467 76.000 C 151.467 76.676,151.363 76.800,150.800 76.800 L 150.133 76.800 150.133 81.179 L 150.133 85.559 150.954 86.379 C 151.664 87.089,151.965 87.200,153.188 87.200 C 154.129 87.200,154.714 87.336,154.939 87.607 C 155.241 87.971,155.323 87.971,155.726 87.607 C 156.052 87.312,156.776 87.200,158.354 87.200 C 160.501 87.200,160.533 87.190,160.533 86.533 C 160.533 85.881,160.578 85.867,162.533 85.867 C 164.489 85.867,164.533 85.852,164.533 85.200 C 164.533 84.548,164.578 84.533,166.533 84.533 C 168.472 84.533,168.533 84.514,168.533 83.887 C 168.533 83.264,168.611 83.237,170.667 83.154 L 172.801 83.067 172.801 83.933 C 172.800 84.680,172.708 84.800,172.133 84.800 C 171.516 84.800,171.467 84.893,171.467 86.070 C 171.467 87.131,171.368 87.383,170.867 87.603 C 170.348 87.831,170.256 88.099,170.186 89.582 C 170.119 91.000,169.992 91.403,169.453 91.903 C 168.865 92.448,168.800 92.720,168.800 94.642 C 168.800 96.562,168.733 96.842,168.133 97.442 C 167.511 98.065,167.467 98.286,167.467 100.788 L 167.467 103.467 166.800 103.467 L 166.133 103.467 166.133 106.133 C 166.133 107.600,166.022 108.800,165.886 108.800 C 165.008 108.800,164.800 109.647,164.800 113.219 C 164.800 115.245,164.692 116.800,164.552 116.800 C 163.642 116.800,163.467 117.619,163.467 121.867 C 163.467 126.050,163.460 126.097,162.867 126.181 C 162.275 126.266,162.266 126.327,162.194 130.806 C 162.123 135.211,162.104 135.353,161.527 135.606 C 160.943 135.863,160.932 135.958,160.861 141.660 C 160.790 147.435,160.788 147.455,160.125 148.117 L 159.460 148.782 159.530 159.258 L 159.600 169.733 160.200 169.819 L 160.800 169.904 160.800 177.219 L 160.800 184.533 161.458 184.533 L 162.117 184.533 162.192 187.800 C 162.264 190.959,162.287 191.069,162.867 191.152 C 163.396 191.227,163.467 191.391,163.467 192.552 C 163.467 193.777,163.512 193.867,164.133 193.867 C 164.756 193.867,164.800 193.956,164.800 195.200 C 164.800 196.444,164.844 196.533,165.467 196.533 C 166.000 196.533,166.133 196.667,166.133 197.200 L 166.133 197.867 170.800 197.867 L 175.467 197.867 175.467 197.200 C 175.467 196.667,175.600 196.533,176.133 196.533 C 176.667 196.533,176.800 196.400,176.800 195.867 C 176.800 195.333,176.933 195.200,177.467 195.200 L 178.133 195.200 178.133 182.300 C 178.133 168.660,178.081 167.739,177.293 167.533 C 176.516 167.330,176.528 151.200,177.304 151.200 C 177.620 151.200,177.871 150.951,177.976 150.533 C 178.134 149.903,178.243 149.867,179.987 149.867 C 181.695 149.867,181.836 149.823,181.915 149.267 C 181.992 148.725,182.182 148.654,183.867 148.533 C 185.538 148.414,185.742 148.339,185.817 147.813 C 185.889 147.308,186.091 147.216,187.283 147.147 C 188.486 147.077,188.678 146.988,188.752 146.467 C 188.831 145.911,188.973 145.867,190.656 145.867 C 192.374 145.867,192.485 145.830,192.643 145.200 C 192.793 144.601,192.944 144.533,194.138 144.533 C 195.371 144.533,195.467 144.486,195.467 143.879 C 195.467 143.263,195.564 143.221,197.133 143.146 C 198.566 143.078,198.837 142.982,199.063 142.467 C 199.282 141.968,199.536 141.867,200.568 141.867 C 201.669 141.867,201.828 141.792,201.976 141.200 C 202.124 140.613,202.286 140.533,203.338 140.533 C 204.435 140.533,204.533 140.479,204.533 139.867 C 204.533 139.244,204.622 139.200,205.867 139.200 C 207.111 139.200,207.200 139.156,207.200 138.533 C 207.200 137.911,207.289 137.867,208.533 137.867 C 209.778 137.867,209.867 137.822,209.867 137.200 C 209.867 136.578,209.956 136.533,211.200 136.533 C 212.444 136.533,212.533 136.489,212.533 135.867 C 212.533 135.244,212.622 135.200,213.867 135.200 C 215.111 135.200,215.200 135.156,215.200 134.533 C 215.200 133.911,215.289 133.867,216.533 133.867 C 217.769 133.867,217.867 133.819,217.867 133.215 C 217.867 132.640,217.998 132.554,219.000 132.482 C 219.875 132.419,220.193 132.263,220.397 131.800 C 220.558 131.432,220.893 131.200,221.263 131.200 C 221.729 131.200,221.867 131.048,221.867 130.533 C 221.867 129.911,221.956 129.867,223.200 129.867 C 224.436 129.867,224.533 129.819,224.533 129.215 C 224.533 128.626,224.656 128.555,225.800 128.481 C 226.881 128.412,227.079 128.312,227.152 127.800 C 227.214 127.366,227.416 127.200,227.885 127.200 C 228.399 127.200,228.533 127.062,228.533 126.533 C 228.533 125.911,228.622 125.867,229.867 125.867 C 231.111 125.867,231.200 125.822,231.200 125.200 C 231.200 124.635,231.324 124.533,232.013 124.533 C 232.537 124.533,233.045 124.297,233.443 123.867 C 233.783 123.500,234.317 123.200,234.631 123.200 C 235.057 123.200,235.200 123.036,235.200 122.549 C 235.200 121.973,235.332 121.888,236.333 121.815 C 237.208 121.752,237.527 121.597,237.730 121.133 C 237.891 120.765,238.227 120.533,238.597 120.533 C 239.062 120.533,239.200 120.381,239.200 119.867 C 239.200 119.330,239.333 119.200,239.879 119.200 C 240.252 119.200,240.858 118.900,241.224 118.533 C 241.591 118.167,242.185 117.867,242.545 117.867 C 243.066 117.867,243.200 117.730,243.200 117.200 C 243.200 116.667,243.333 116.533,243.867 116.533 C 244.400 116.533,244.533 116.400,244.533 115.867 C 244.533 115.367,244.674 115.200,245.095 115.200 C 245.404 115.200,245.887 114.907,246.168 114.550 C 246.480 114.154,247.016 113.867,247.540 113.816 C 248.198 113.753,248.420 113.592,248.485 113.133 C 248.547 112.699,248.749 112.533,249.219 112.533 C 249.732 112.533,249.867 112.395,249.867 111.867 C 249.867 111.333,250.000 111.200,250.533 111.200 C 251.067 111.200,251.200 111.067,251.200 110.533 C 251.200 110.000,251.333 109.867,251.867 109.867 C 252.400 109.867,252.533 109.733,252.533 109.200 C 252.533 108.667,252.667 108.533,253.200 108.533 C 253.733 108.533,253.867 108.400,253.867 107.867 C 253.867 107.333,254.000 107.200,254.533 107.200 C 255.062 107.200,255.200 107.065,255.200 106.552 C 255.200 106.083,255.366 105.880,255.800 105.819 C 256.312 105.746,256.412 105.548,256.481 104.467 C 256.555 103.323,256.626 103.200,257.215 103.200 C 257.732 103.200,257.867 103.063,257.867 102.533 C 257.867 102.000,258.000 101.867,258.533 101.867 C 259.156 101.867,259.200 101.778,259.200 100.533 C 259.200 99.289,259.244 99.200,259.867 99.200 C 260.489 99.200,260.533 99.111,260.533 97.867 C 260.533 96.622,260.578 96.533,261.200 96.533 C 261.818 96.533,261.867 96.440,261.867 95.263 C 261.867 94.202,261.965 93.950,262.467 93.730 C 262.990 93.500,263.077 93.238,263.145 91.684 C 263.216 90.077,263.282 89.892,263.812 89.817 C 264.395 89.734,264.401 89.682,264.472 84.043 L 264.544 78.352 263.872 77.823 C 263.355 77.417,263.200 77.050,263.200 76.235 C 263.200 75.446,263.029 75.016,262.533 74.557 C 262.167 74.217,261.867 73.683,261.867 73.369 C 261.867 72.940,261.703 72.800,261.200 72.800 C 260.667 72.800,260.533 72.667,260.533 72.133 C 260.533 71.605,260.399 71.467,259.885 71.467 C 259.416 71.467,259.214 71.301,259.152 70.867 C 259.079 70.355,258.881 70.255,257.800 70.185 C 256.656 70.112,256.533 70.041,256.533 69.452 C 256.533 68.953,256.392 68.800,255.930 68.800 C 255.560 68.800,255.225 68.568,255.063 68.200 C 254.863 67.745,254.541 67.581,253.725 67.521 C 252.916 67.461,252.585 67.296,252.391 66.854 C 252.168 66.345,251.893 66.256,250.333 66.188 C 248.621 66.113,248.533 66.077,248.533 65.454 C 248.533 64.803,248.520 64.800,245.867 64.800 L 243.200 64.800 243.200 64.133 L 243.200 63.467 239.867 63.467 L 236.533 63.467 236.533 62.800 L 236.533 62.133 215.333 62.133 L 194.133 62.133 194.133 62.800 M229.467 64.680 C 230.933 64.906,233.633 65.260,235.467 65.467 C 237.300 65.674,239.280 66.015,239.867 66.225 C 240.453 66.436,241.713 66.695,242.667 66.802 C 243.620 66.909,244.839 67.219,245.376 67.491 C 245.912 67.763,246.872 68.064,247.509 68.160 C 248.146 68.256,249.027 68.546,249.467 68.804 C 249.907 69.061,250.567 69.360,250.933 69.468 C 255.700 70.865,260.657 76.053,261.771 80.810 L 262.465 83.775 261.716 86.888 C 261.304 88.599,260.819 90.240,260.638 90.533 C 260.458 90.827,260.169 91.602,259.996 92.257 C 259.823 92.912,259.453 93.738,259.174 94.093 C 258.895 94.448,258.667 94.910,258.667 95.119 C 258.667 95.586,257.097 98.883,256.782 99.078 C 256.657 99.155,256.182 99.919,255.725 100.775 C 254.661 102.772,244.464 113.067,243.550 113.067 C 243.422 113.067,242.241 113.964,240.926 115.061 C 239.610 116.158,238.396 117.058,238.229 117.061 C 238.062 117.064,237.344 117.546,236.635 118.133 C 235.925 118.719,234.842 119.435,234.227 119.724 C 233.612 120.013,233.036 120.367,232.947 120.511 C 232.742 120.842,230.444 122.400,230.160 122.400 C 230.043 122.400,229.479 122.738,228.907 123.151 C 228.335 123.565,227.267 124.245,226.533 124.662 C 225.800 125.080,224.960 125.628,224.667 125.880 C 224.373 126.132,223.833 126.427,223.467 126.534 C 223.100 126.642,222.599 126.906,222.354 127.121 C 221.886 127.531,218.574 129.493,216.533 130.569 C 215.873 130.917,215.153 131.318,214.933 131.461 C 214.713 131.604,214.113 131.906,213.600 132.133 C 213.087 132.359,211.779 133.022,210.693 133.606 C 209.608 134.189,208.611 134.667,208.479 134.667 C 208.347 134.667,207.797 134.967,207.257 135.333 C 206.718 135.700,206.118 136.000,205.924 136.000 C 205.730 136.000,205.130 136.300,204.591 136.667 C 204.051 137.033,203.463 137.333,203.283 137.333 C 203.104 137.333,202.515 137.633,201.975 138.000 C 201.434 138.367,200.785 138.667,200.532 138.667 C 200.279 138.667,199.776 138.899,199.415 139.183 C 199.054 139.468,198.407 139.784,197.979 139.885 C 197.551 139.987,196.660 140.338,196.000 140.665 C 193.568 141.871,192.381 142.382,191.600 142.560 C 191.160 142.661,190.261 143.026,189.602 143.371 C 188.943 143.717,188.223 144.001,188.002 144.002 C 187.781 144.004,187.000 144.300,186.267 144.661 C 185.533 145.022,184.735 145.320,184.493 145.325 C 184.251 145.330,183.411 145.632,182.626 145.997 C 181.842 146.363,180.955 146.663,180.656 146.664 C 180.357 146.665,179.644 146.906,179.071 147.198 C 178.499 147.490,177.603 147.805,177.082 147.899 C 174.481 148.368,174.266 148.957,174.270 155.600 C 174.275 162.464,174.828 174.608,175.332 178.926 C 176.030 184.898,175.966 192.172,175.204 193.488 C 172.589 198.003,166.455 195.751,165.474 189.915 C 165.368 189.282,165.064 188.142,164.799 187.382 C 164.534 186.622,164.238 185.040,164.141 183.867 C 164.043 182.693,163.707 180.233,163.394 178.400 C 162.586 173.677,162.500 146.148,163.284 143.067 C 163.545 142.040,163.881 139.520,164.032 137.467 C 164.182 135.413,164.529 132.713,164.803 131.467 C 165.077 130.220,165.380 128.180,165.475 126.933 C 165.571 125.687,165.871 123.707,166.142 122.533 C 166.412 121.360,166.711 119.380,166.806 118.133 C 166.902 116.887,167.202 115.027,167.473 114.000 C 167.744 112.973,168.049 111.293,168.151 110.267 C 168.252 109.240,168.555 107.839,168.823 107.154 C 169.090 106.468,169.386 105.268,169.479 104.487 C 169.571 103.706,169.864 102.407,170.128 101.600 C 170.392 100.793,170.696 99.353,170.802 98.400 C 170.909 97.447,171.150 96.365,171.339 95.997 C 171.527 95.628,171.822 94.548,171.993 93.597 C 172.165 92.645,172.464 91.567,172.659 91.200 C 172.854 90.833,173.156 90.002,173.330 89.352 C 173.504 88.702,173.936 87.744,174.290 87.223 C 174.644 86.702,174.933 86.131,174.933 85.954 C 174.933 85.777,175.663 84.725,176.555 83.616 L 178.177 81.600 180.268 81.600 C 184.876 81.600,185.961 85.488,183.303 92.472 C 182.953 93.392,182.667 94.385,182.667 94.680 C 182.667 94.975,182.382 95.902,182.034 96.741 C 181.686 97.580,181.317 98.734,181.215 99.306 C 181.112 99.877,180.859 100.602,180.654 100.916 C 180.448 101.230,180.107 102.383,179.895 103.477 C 179.684 104.571,179.379 105.809,179.218 106.229 C 179.057 106.648,178.793 108.201,178.632 109.681 C 178.471 111.160,178.168 112.858,177.957 113.452 C 177.747 114.047,177.458 115.793,177.315 117.333 C 177.171 118.873,176.876 120.755,176.658 121.515 C 176.441 122.275,176.146 124.735,176.004 126.982 C 175.862 129.228,175.612 131.975,175.448 133.085 C 174.923 136.640,176.391 138.289,178.772 136.817 C 179.262 136.515,179.902 136.267,180.194 136.267 C 180.486 136.267,181.168 135.967,181.708 135.600 C 182.248 135.233,182.835 134.933,183.012 134.932 C 183.189 134.932,184.053 134.572,184.933 134.133 C 185.813 133.694,186.699 133.335,186.902 133.334 C 187.105 133.334,187.645 133.108,188.102 132.832 C 188.559 132.557,189.371 132.254,189.907 132.159 C 190.442 132.064,191.026 131.810,191.205 131.594 C 191.384 131.379,192.026 131.060,192.632 130.886 C 193.238 130.712,194.052 130.352,194.441 130.085 C 194.830 129.818,195.310 129.600,195.508 129.599 C 195.705 129.598,196.587 129.239,197.467 128.800 C 198.347 128.361,199.260 128.002,199.497 128.001 C 199.734 128.000,200.214 127.778,200.564 127.507 C 200.914 127.236,201.553 126.928,201.984 126.823 C 202.415 126.717,203.093 126.399,203.492 126.116 C 203.890 125.832,204.308 125.600,204.420 125.600 C 204.837 125.600,214.605 120.778,218.000 118.896 C 218.733 118.490,219.844 117.916,220.469 117.621 C 221.093 117.325,221.753 116.957,221.935 116.801 C 222.118 116.646,223.185 115.952,224.308 115.259 C 228.153 112.887,228.873 112.398,230.236 111.240 C 230.986 110.602,231.900 109.947,232.267 109.786 C 234.552 108.779,246.823 96.587,248.267 93.889 C 249.186 92.171,250.879 88.628,251.017 88.133 C 251.098 87.840,251.348 87.120,251.571 86.533 C 252.335 84.524,252.138 81.926,251.112 80.483 C 250.108 79.071,248.147 77.333,247.558 77.333 C 247.342 77.333,246.544 77.051,245.783 76.706 C 245.022 76.361,243.777 75.997,243.016 75.899 C 242.254 75.800,241.200 75.539,240.672 75.319 C 240.145 75.098,238.428 74.798,236.857 74.650 C 235.286 74.503,233.040 74.177,231.867 73.925 C 229.236 73.360,207.914 73.267,204.667 73.806 C 203.640 73.976,201.360 74.248,199.600 74.410 C 197.840 74.571,195.320 74.887,194.000 75.112 C 192.680 75.336,190.760 75.634,189.733 75.774 C 188.707 75.914,187.027 76.208,186.000 76.428 C 184.973 76.648,183.118 77.008,181.877 77.228 C 180.636 77.448,179.256 77.795,178.810 78.000 C 178.365 78.204,177.313 78.493,176.473 78.642 C 175.634 78.791,174.584 79.101,174.140 79.330 C 173.696 79.559,172.733 79.861,172.001 80.000 C 171.268 80.139,170.135 80.496,169.482 80.793 C 168.830 81.090,168.015 81.333,167.671 81.333 C 167.327 81.333,166.591 81.566,166.034 81.849 C 165.477 82.133,164.435 82.491,163.718 82.645 C 163.001 82.799,161.963 83.167,161.411 83.462 C 160.859 83.758,160.101 84.000,159.727 84.000 C 159.353 84.000,158.571 84.249,157.990 84.553 C 153.408 86.952,150.775 83.818,153.180 78.828 C 154.167 76.778,155.004 75.848,156.667 74.949 C 160.604 72.820,161.694 72.289,162.465 72.122 C 162.942 72.019,163.756 71.721,164.273 71.460 C 164.790 71.198,165.810 70.899,166.540 70.796 C 167.269 70.692,168.361 70.394,168.966 70.134 C 169.570 69.873,170.830 69.572,171.766 69.465 C 172.701 69.357,174.007 69.060,174.667 68.804 C 175.327 68.548,176.744 68.254,177.817 68.151 C 178.889 68.049,180.329 67.788,181.017 67.572 C 181.704 67.356,183.820 67.001,185.718 66.782 C 187.616 66.564,189.776 66.218,190.518 66.013 C 191.260 65.809,193.667 65.506,195.867 65.340 C 198.067 65.174,200.647 64.877,201.600 64.679 C 204.270 64.124,225.862 64.125,229.467 64.680 M236.109 77.200 C 236.731 77.822,236.954 77.867,239.436 77.867 C 241.992 77.867,242.100 77.890,242.181 78.467 C 242.260 79.017,242.426 79.073,244.200 79.145 C 246.054 79.220,246.133 79.250,246.133 79.878 C 246.133 80.436,246.259 80.533,246.979 80.533 C 248.560 80.533,248.800 81.045,248.800 84.423 C 248.800 87.338,248.782 87.432,248.200 87.515 C 247.689 87.587,247.588 87.786,247.519 88.850 C 247.451 89.904,247.347 90.113,246.853 90.183 C 246.357 90.254,246.254 90.462,246.185 91.533 C 246.112 92.677,246.041 92.800,245.452 92.800 C 244.934 92.800,244.800 92.937,244.800 93.467 C 244.800 94.000,244.667 94.133,244.133 94.133 C 243.619 94.133,243.467 94.271,243.467 94.737 C 243.467 95.107,243.235 95.442,242.867 95.603 C 242.527 95.752,242.227 96.156,242.175 96.533 C 242.061 97.360,239.116 100.411,237.933 100.928 C 237.457 101.136,237.067 101.435,237.067 101.593 C 237.067 101.751,236.755 101.998,236.374 102.143 C 235.993 102.288,235.619 102.645,235.543 102.937 C 235.454 103.279,235.179 103.467,234.769 103.467 C 234.269 103.467,234.133 103.609,234.133 104.133 C 234.133 104.667,234.000 104.800,233.467 104.800 C 232.933 104.800,232.800 104.933,232.800 105.467 C 232.800 106.000,232.667 106.133,232.133 106.133 C 231.600 106.133,231.467 106.267,231.467 106.800 C 231.467 107.300,231.326 107.467,230.905 107.467 C 230.596 107.467,230.107 107.767,229.819 108.133 C 229.442 108.613,229.038 108.800,228.381 108.800 C 227.584 108.800,227.467 108.885,227.467 109.467 C 227.467 110.000,227.333 110.133,226.800 110.133 C 226.271 110.133,226.133 110.268,226.133 110.785 C 226.133 111.374,226.010 111.445,224.867 111.519 C 223.786 111.588,223.588 111.688,223.515 112.200 C 223.453 112.634,223.251 112.800,222.781 112.800 C 222.268 112.800,222.133 112.938,222.133 113.467 C 222.133 114.089,222.044 114.133,220.800 114.133 C 219.556 114.133,219.467 114.178,219.467 114.800 C 219.467 115.422,219.378 115.467,218.133 115.467 C 216.897 115.467,216.800 115.514,216.800 116.119 C 216.800 116.707,216.677 116.779,215.533 116.852 C 214.462 116.921,214.254 117.024,214.183 117.519 C 214.115 117.999,213.900 118.119,212.983 118.185 C 212.125 118.248,211.806 118.406,211.603 118.867 C 211.410 119.309,211.116 119.467,210.489 119.467 C 209.685 119.467,208.800 120.027,208.800 120.537 C 208.800 120.665,208.290 120.806,207.667 120.851 C 206.799 120.914,206.473 121.071,206.275 121.521 C 206.073 121.982,205.756 122.126,204.809 122.188 C 203.787 122.254,203.587 122.360,203.515 122.867 C 203.440 123.396,203.275 123.467,202.115 123.467 C 200.890 123.467,200.800 123.512,200.800 124.133 C 200.800 124.756,200.711 124.800,199.467 124.800 C 198.222 124.800,198.133 124.844,198.133 125.467 C 198.133 126.081,198.037 126.133,196.905 126.133 C 195.919 126.133,195.575 126.262,195.163 126.787 C 194.742 127.321,194.370 127.455,193.124 127.520 C 191.775 127.591,191.590 127.669,191.515 128.200 C 191.440 128.730,191.275 128.800,190.115 128.800 C 188.890 128.800,188.800 128.846,188.800 129.467 C 188.800 130.081,188.704 130.133,187.572 130.133 C 186.586 130.133,186.242 130.262,185.829 130.787 C 185.409 131.321,185.037 131.455,183.791 131.520 C 182.442 131.591,182.257 131.669,182.181 132.200 C 182.106 132.730,181.942 132.800,180.781 132.800 C 179.557 132.800,179.467 132.846,179.467 133.467 C 179.467 134.000,179.333 134.133,178.800 134.133 L 178.133 134.133 178.133 131.325 C 178.133 129.091,178.214 128.486,178.528 128.365 C 179.211 128.103,179.464 126.403,179.465 122.067 C 179.467 118.132,179.498 117.867,179.969 117.867 C 180.648 117.867,180.792 117.179,180.796 113.916 C 180.800 111.395,180.856 111.091,181.467 110.290 C 182.060 109.512,182.133 109.161,182.133 107.084 C 182.133 105.011,182.198 104.700,182.713 104.282 C 183.165 103.917,183.320 103.445,183.414 102.150 C 183.506 100.878,183.682 100.328,184.167 99.805 C 184.695 99.236,184.800 98.841,184.800 97.434 C 184.800 95.927,184.872 95.699,185.467 95.309 C 186.071 94.913,186.133 94.700,186.133 93.036 C 186.133 91.412,186.192 91.200,186.638 91.200 C 187.381 91.200,187.467 90.729,187.467 86.667 C 187.467 82.605,187.381 82.133,186.638 82.133 C 186.284 82.133,186.133 81.944,186.133 81.498 C 186.133 81.079,185.945 80.813,185.580 80.718 C 185.276 80.638,184.962 80.324,184.882 80.020 C 184.779 79.626,184.497 79.451,183.902 79.413 C 183.443 79.383,184.567 79.293,186.400 79.213 C 189.603 79.072,189.737 79.043,189.819 78.467 C 189.903 77.874,189.954 77.867,194.039 77.867 C 198.108 77.867,198.183 77.856,198.754 77.205 L 199.333 76.543 217.388 76.538 L 235.442 76.533 236.109 77.200 M173.867 82.057 C 173.647 82.138,173.317 82.324,173.133 82.468 C 172.895 82.657,172.800 82.608,172.800 82.299 C 172.800 82.000,173.026 81.873,173.533 81.888 C 173.951 81.900,174.095 81.972,173.867 82.057 M70.133 89.467 C 70.133 90.119,70.089 90.133,68.133 90.133 C 66.178 90.133,66.133 90.148,66.133 90.800 C 66.133 91.422,66.044 91.467,64.800 91.467 C 63.556 91.467,63.467 91.511,63.467 92.133 C 63.467 92.667,63.333 92.800,62.800 92.800 C 62.267 92.800,62.133 92.933,62.133 93.467 C 62.133 94.000,62.000 94.133,61.467 94.133 C 60.933 94.133,60.800 94.267,60.800 94.800 C 60.800 95.333,60.667 95.467,60.133 95.467 C 59.600 95.467,59.467 95.600,59.467 96.133 C 59.467 96.667,59.333 96.800,58.800 96.800 C 58.267 96.800,58.133 96.933,58.133 97.467 C 58.133 98.000,58.000 98.133,57.467 98.133 C 56.844 98.133,56.800 98.222,56.800 99.467 C 56.800 100.711,56.756 100.800,56.133 100.800 L 55.467 100.800 55.467 110.000 L 55.467 119.200 56.133 119.200 L 56.800 119.200 56.800 122.533 L 56.800 125.867 57.467 125.867 L 58.133 125.867 58.133 131.333 L 58.133 136.800 57.467 136.800 C 56.844 136.800,56.800 136.889,56.800 138.133 C 56.800 139.378,56.756 139.467,56.133 139.467 C 55.600 139.467,55.467 139.600,55.467 140.133 C 55.467 140.785,55.422 140.800,53.467 140.800 C 51.511 140.800,51.467 140.815,51.467 141.467 L 51.467 142.133 48.800 142.133 L 46.133 142.133 46.133 147.333 L 46.133 152.533 48.800 152.533 L 51.467 152.533 51.467 153.200 C 51.467 153.852,51.511 153.867,53.467 153.867 C 55.422 153.867,55.467 153.881,55.467 154.533 C 55.467 155.067,55.600 155.200,56.133 155.200 C 56.756 155.200,56.800 155.289,56.800 156.533 C 56.800 157.778,56.844 157.867,57.467 157.867 L 58.133 157.867 58.133 163.333 L 58.133 168.800 57.467 168.800 L 56.800 168.800 56.800 172.133 L 56.800 175.467 56.133 175.467 L 55.467 175.467 55.467 184.667 L 55.467 193.867 56.133 193.867 C 56.756 193.867,56.800 193.956,56.800 195.200 C 56.800 196.444,56.844 196.533,57.467 196.533 C 58.000 196.533,58.133 196.667,58.133 197.200 C 58.133 197.733,58.267 197.867,58.800 197.867 C 59.422 197.867,59.467 197.956,59.467 199.200 L 59.467 200.533 60.800 200.533 C 62.044 200.533,62.133 200.578,62.133 201.200 C 62.133 201.733,62.267 201.867,62.800 201.867 C 63.333 201.867,63.467 202.000,63.467 202.533 C 63.467 203.156,63.556 203.200,64.800 203.200 C 66.044 203.200,66.133 203.244,66.133 203.867 C 66.133 204.519,66.178 204.533,68.133 204.533 C 70.089 204.533,70.133 204.548,70.133 205.200 L 70.133 205.867 74.667 205.867 L 79.200 205.867 79.200 200.667 L 79.200 195.467 76.533 195.467 L 73.867 195.467 73.867 194.800 C 73.867 194.178,73.778 194.133,72.533 194.133 C 71.289 194.133,71.200 194.089,71.200 193.467 C 71.200 192.933,71.067 192.800,70.533 192.800 C 70.000 192.800,69.867 192.667,69.867 192.133 C 69.867 191.600,69.733 191.467,69.200 191.467 C 68.579 191.467,68.533 191.377,68.533 190.151 C 68.533 188.921,68.486 188.828,67.800 188.724 L 67.067 188.613 67.800 188.573 L 68.533 188.533 68.533 183.867 L 68.533 179.200 69.200 179.200 L 69.867 179.200 69.867 168.667 L 69.867 158.133 69.200 158.133 C 68.578 158.133,68.533 158.044,68.533 156.800 C 68.533 155.556,68.489 155.467,67.867 155.467 C 67.244 155.467,67.200 155.378,67.200 154.133 C 67.200 152.889,67.156 152.800,66.533 152.800 C 65.911 152.800,65.867 152.711,65.867 151.467 C 65.867 150.222,65.822 150.133,65.200 150.133 C 64.667 150.133,64.533 150.000,64.533 149.467 C 64.533 148.933,64.400 148.800,63.867 148.800 C 63.338 148.800,63.200 148.665,63.200 148.151 C 63.200 147.648,63.035 147.477,62.467 147.391 L 61.733 147.280 62.467 147.240 C 63.060 147.208,63.200 147.073,63.200 146.533 C 63.200 146.000,63.333 145.867,63.867 145.867 C 64.400 145.867,64.533 145.733,64.533 145.200 C 64.533 144.667,64.667 144.533,65.200 144.533 C 65.822 144.533,65.867 144.444,65.867 143.200 C 65.867 141.956,65.911 141.867,66.533 141.867 C 67.067 141.867,67.200 141.733,67.200 141.200 C 67.200 140.667,67.333 140.533,67.867 140.533 C 68.519 140.533,68.533 140.489,68.533 138.533 C 68.533 136.578,68.548 136.533,69.200 136.533 L 69.867 136.533 69.867 126.000 L 69.867 115.467 69.200 115.467 L 68.533 115.467 68.533 110.818 L 68.533 106.169 67.800 106.058 L 67.067 105.947 67.800 105.907 C 68.497 105.869,68.533 105.800,68.533 104.533 C 68.533 103.289,68.578 103.200,69.200 103.200 C 69.733 103.200,69.867 103.067,69.867 102.533 C 69.867 102.000,70.000 101.867,70.533 101.867 C 71.067 101.867,71.200 101.733,71.200 101.200 C 71.200 100.578,71.289 100.533,72.533 100.533 C 73.778 100.533,73.867 100.489,73.867 99.867 L 73.867 99.200 76.533 99.200 L 79.200 99.200 79.200 94.000 L 79.200 88.800 74.667 88.800 L 70.133 88.800 70.133 89.467 M322.133 93.994 L 322.133 99.200 324.133 99.200 C 326.089 99.200,326.133 99.215,326.133 99.867 C 326.133 100.519,326.178 100.533,328.133 100.533 C 330.089 100.533,330.133 100.548,330.133 101.200 C 330.133 101.733,330.267 101.867,330.800 101.867 C 331.333 101.867,331.467 102.000,331.467 102.533 C 331.467 103.067,331.600 103.200,332.133 103.200 L 332.800 103.200 332.800 108.667 L 332.800 114.133 332.133 114.133 L 331.467 114.133 331.467 125.333 L 331.467 136.533 332.133 136.533 C 332.785 136.533,332.800 136.578,332.800 138.533 C 332.800 140.489,332.815 140.533,333.467 140.533 C 334.000 140.533,334.133 140.667,334.133 141.200 C 334.133 141.733,334.267 141.867,334.800 141.867 C 335.422 141.867,335.467 141.956,335.467 143.200 C 335.467 144.444,335.511 144.533,336.133 144.533 C 336.667 144.533,336.800 144.667,336.800 145.200 C 336.800 145.733,336.933 145.867,337.467 145.867 C 337.995 145.867,338.133 146.001,338.133 146.516 C 338.133 147.019,338.298 147.190,338.867 147.276 L 339.600 147.387 338.867 147.427 C 338.273 147.459,338.133 147.594,338.133 148.133 C 338.133 148.667,338.000 148.800,337.467 148.800 C 336.933 148.800,336.800 148.933,336.800 149.467 C 336.800 150.000,336.667 150.133,336.133 150.133 C 335.511 150.133,335.467 150.222,335.467 151.467 C 335.467 152.711,335.422 152.800,334.800 152.800 C 334.267 152.800,334.133 152.933,334.133 153.467 C 334.133 154.000,334.000 154.133,333.467 154.133 C 332.815 154.133,332.800 154.178,332.800 156.133 C 332.800 158.089,332.785 158.133,332.133 158.133 L 331.467 158.133 331.467 169.333 L 331.467 180.533 332.133 180.533 L 332.800 180.533 332.800 186.000 L 332.800 191.467 332.133 191.467 C 331.600 191.467,331.467 191.600,331.467 192.133 C 331.467 192.667,331.333 192.800,330.800 192.800 C 330.267 192.800,330.133 192.933,330.133 193.467 C 330.133 194.119,330.089 194.133,328.133 194.133 C 326.178 194.133,326.133 194.148,326.133 194.800 C 326.133 195.452,326.089 195.467,324.133 195.467 L 322.133 195.467 322.133 200.673 L 322.133 205.879 326.733 205.806 C 331.249 205.735,331.335 205.723,331.417 205.145 C 331.493 204.609,331.672 204.549,333.417 204.478 C 335.159 204.407,335.341 204.347,335.417 203.814 C 335.487 203.320,335.696 203.215,336.750 203.147 C 337.814 203.079,338.013 202.977,338.085 202.467 C 338.140 202.081,338.354 201.867,338.685 201.867 C 339.057 201.867,339.200 201.681,339.200 201.200 C 339.200 200.667,339.333 200.533,339.867 200.533 C 340.400 200.533,340.533 200.400,340.533 199.867 C 340.533 199.333,340.667 199.200,341.200 199.200 C 341.733 199.200,341.867 199.067,341.867 198.533 C 341.867 198.000,342.000 197.867,342.533 197.867 C 343.067 197.867,343.200 197.733,343.200 197.200 C 343.200 196.667,343.333 196.533,343.867 196.533 C 344.489 196.533,344.533 196.444,344.533 195.200 C 344.533 193.956,344.578 193.867,345.200 193.867 L 345.867 193.867 345.867 184.667 L 345.867 175.467 345.200 175.467 L 344.533 175.467 344.533 172.133 L 344.533 168.800 343.867 168.800 L 343.200 168.800 343.200 163.333 L 343.200 157.867 343.867 157.867 C 344.489 157.867,344.533 157.778,344.533 156.533 C 344.533 155.289,344.578 155.200,345.200 155.200 C 345.733 155.200,345.867 155.067,345.867 154.533 C 345.867 153.881,345.911 153.867,347.867 153.867 C 349.822 153.867,349.867 153.852,349.867 153.200 L 349.867 152.533 352.533 152.533 L 355.200 152.533 355.200 147.333 L 355.200 142.133 352.533 142.133 L 349.867 142.133 349.867 141.467 C 349.867 140.815,349.822 140.800,347.867 140.800 C 345.911 140.800,345.867 140.785,345.867 140.133 C 345.867 139.600,345.733 139.467,345.200 139.467 C 344.578 139.467,344.533 139.378,344.533 138.133 C 344.533 136.889,344.489 136.800,343.867 136.800 L 343.200 136.800 343.200 131.333 L 343.200 125.867 343.867 125.867 L 344.533 125.867 344.533 122.533 L 344.533 119.200 345.200 119.200 L 345.867 119.200 345.867 110.000 L 345.867 100.800 345.200 100.800 C 344.578 100.800,344.533 100.711,344.533 99.467 C 344.533 98.222,344.489 98.133,343.867 98.133 C 343.333 98.133,343.200 98.000,343.200 97.467 C 343.200 96.933,343.067 96.800,342.533 96.800 C 342.000 96.800,341.867 96.667,341.867 96.133 C 341.867 95.600,341.733 95.467,341.200 95.467 C 340.667 95.467,340.533 95.333,340.533 94.800 C 340.533 94.267,340.400 94.133,339.867 94.133 C 339.333 94.133,339.200 94.000,339.200 93.467 C 339.200 92.986,339.057 92.800,338.685 92.800 C 338.354 92.800,338.140 92.586,338.085 92.200 C 338.013 91.689,337.814 91.588,336.750 91.519 C 335.696 91.451,335.487 91.347,335.417 90.853 C 335.341 90.320,335.159 90.260,333.417 90.189 C 331.672 90.118,331.493 90.058,331.417 89.522 C 331.335 88.944,331.249 88.932,326.733 88.860 L 322.133 88.787 322.133 93.994 M76.200 91.101 C 76.773 91.255,76.800 91.387,76.800 93.988 C 76.800 97.054,76.606 97.333,74.482 97.333 C 72.455 97.333,67.562 100.165,66.795 101.781 C 66.533 102.334,66.164 102.941,65.975 103.130 C 65.170 103.934,65.169 109.340,65.972 111.777 C 66.182 112.413,66.430 113.713,66.525 114.667 C 66.620 115.620,66.936 117.863,67.227 119.650 C 68.875 129.754,67.097 138.029,62.154 143.268 C 61.043 144.446,59.878 145.858,59.567 146.406 L 59.001 147.403 59.734 148.568 C 60.138 149.209,61.319 150.633,62.358 151.733 C 64.497 153.997,66.357 157.420,66.924 160.133 C 67.107 161.013,67.365 162.081,67.495 162.506 C 67.884 163.769,67.780 171.974,67.347 174.237 C 67.135 175.346,66.828 177.486,66.664 178.993 C 66.501 180.500,66.176 182.273,65.943 182.933 C 64.046 188.307,66.299 194.559,70.665 196.036 C 71.178 196.209,72.126 196.632,72.772 196.976 C 73.418 197.319,74.398 197.600,74.951 197.600 C 76.786 197.600,76.800 197.624,76.800 200.667 C 76.800 202.922,76.725 203.438,76.378 203.571 C 75.778 203.802,74.817 203.772,74.520 203.513 C 74.381 203.392,73.307 203.142,72.133 202.957 C 70.960 202.773,69.520 202.407,68.933 202.145 C 64.756 200.277,64.063 199.835,62.029 197.747 C 57.994 193.604,56.522 187.002,58.010 179.733 C 58.235 178.633,58.588 176.688,58.794 175.411 C 59.000 174.134,59.308 172.830,59.477 172.514 C 59.791 171.928,60.811 163.941,60.820 162.000 C 60.839 158.095,57.883 152.041,55.933 151.992 C 55.750 151.987,55.000 151.688,54.267 151.327 C 53.235 150.820,52.508 150.671,51.051 150.669 C 48.305 150.666,48.231 150.571,48.323 147.196 L 48.400 144.400 50.777 144.187 C 52.395 144.042,53.595 143.765,54.536 143.320 C 55.296 142.961,56.032 142.667,56.170 142.667 C 56.309 142.667,56.908 142.157,57.502 141.533 C 60.066 138.843,61.404 134.561,60.838 130.864 C 60.653 129.655,60.338 127.327,60.139 125.690 C 59.940 124.052,59.640 122.457,59.473 122.145 C 59.306 121.833,59.000 120.532,58.794 119.255 C 58.588 117.978,58.235 116.033,58.010 114.933 C 56.065 105.433,59.289 97.219,66.267 93.897 C 67.293 93.408,68.458 92.837,68.855 92.629 C 69.252 92.420,70.572 92.111,71.789 91.941 C 73.005 91.771,74.237 91.475,74.526 91.283 C 75.113 90.893,75.333 90.869,76.200 91.101 M327.009 91.297 C 327.334 91.497,328.645 91.809,329.922 91.990 C 331.199 92.171,332.374 92.475,332.533 92.666 C 332.692 92.858,333.143 93.095,333.536 93.194 C 335.776 93.756,339.921 97.091,341.665 99.733 C 343.428 102.405,344.544 111.167,343.479 113.968 C 343.339 114.337,343.087 115.695,342.920 116.986 C 342.753 118.277,342.391 120.113,342.115 121.067 C 340.430 126.895,340.067 133.260,341.191 137.306 C 342.201 140.945,345.843 143.785,349.946 144.134 C 353.348 144.423,353.067 144.135,353.067 147.323 C 353.067 150.562,353.211 150.395,350.179 150.660 C 348.497 150.807,347.493 151.053,346.495 151.564 C 345.740 151.951,345.041 152.267,344.940 152.267 C 344.734 152.267,343.108 153.941,342.190 155.098 C 341.855 155.521,341.523 156.167,341.452 156.533 C 341.382 156.900,341.156 157.740,340.950 158.400 C 340.396 160.173,340.211 162.836,340.503 164.800 C 340.645 165.753,340.950 167.793,341.180 169.333 C 341.410 170.873,341.775 172.613,341.990 173.200 C 343.557 177.464,344.202 188.194,343.091 191.503 C 341.919 194.995,339.042 198.818,336.667 200.041 C 336.227 200.268,335.507 200.646,335.067 200.883 C 333.137 201.919,331.192 202.608,329.333 202.915 C 328.233 203.096,327.125 203.354,326.870 203.489 C 326.339 203.769,325.306 203.808,324.688 203.571 C 324.342 203.438,324.267 202.922,324.267 200.667 C 324.267 197.581,324.146 197.749,326.558 197.460 C 327.425 197.357,328.493 197.059,328.933 196.800 C 329.373 196.540,330.033 196.240,330.400 196.133 C 331.555 195.796,333.880 193.820,334.455 192.687 C 334.758 192.089,335.230 191.314,335.503 190.964 C 336.133 190.158,336.176 186.814,335.590 184.267 C 335.370 183.313,335.021 181.333,334.815 179.867 C 334.608 178.400,334.291 176.600,334.111 175.867 C 333.459 173.217,333.480 162.834,334.141 160.533 C 334.910 157.857,336.624 154.447,338.061 152.732 C 338.707 151.963,339.640 150.853,340.135 150.267 C 340.630 149.680,341.323 148.773,341.675 148.251 L 342.314 147.303 340.223 144.785 C 337.820 141.891,336.869 140.587,336.172 139.230 C 335.900 138.700,335.530 138.087,335.350 137.867 C 333.725 135.888,332.981 123.394,334.191 118.400 C 334.422 117.447,334.698 115.827,334.805 114.800 C 334.912 113.773,335.225 112.044,335.500 110.957 C 336.183 108.259,336.185 104.576,335.504 103.703 C 335.232 103.353,334.816 102.691,334.580 102.232 C 333.887 100.878,331.837 99.097,330.446 98.638 C 329.914 98.462,329.117 98.098,328.673 97.827 C 328.230 97.557,327.435 97.335,326.906 97.334 C 326.378 97.334,325.568 97.202,325.106 97.041 L 324.267 96.748 324.267 93.996 C 324.267 92.044,324.364 91.205,324.600 91.110 C 325.251 90.847,326.427 90.939,327.009 91.297 " stroke="none" fill="#1e0404" fill-rule="evenodd"></path><path id="path1" d="M201.600 64.679 C 200.647 64.877,198.067 65.174,195.867 65.340 C 193.667 65.506,191.260 65.809,190.518 66.013 C 189.776 66.218,187.616 66.564,185.718 66.782 C 183.820 67.001,181.704 67.356,181.017 67.572 C 180.329 67.788,178.889 68.049,177.817 68.151 C 176.744 68.254,175.327 68.548,174.667 68.804 C 174.007 69.060,172.701 69.357,171.766 69.465 C 170.830 69.572,169.570 69.873,168.966 70.134 C 168.361 70.394,167.269 70.692,166.540 70.796 C 165.810 70.899,164.790 71.198,164.273 71.460 C 163.756 71.721,162.942 72.019,162.465 72.122 C 161.694 72.289,160.604 72.820,156.667 74.949 C 155.004 75.848,154.167 76.778,153.180 78.828 C 150.775 83.818,153.408 86.952,157.990 84.553 C 158.571 84.249,159.353 84.000,159.727 84.000 C 160.101 84.000,160.859 83.758,161.411 83.462 C 161.963 83.167,163.001 82.799,163.718 82.645 C 164.435 82.491,165.477 82.133,166.034 81.849 C 166.591 81.566,167.327 81.333,167.671 81.333 C 168.015 81.333,168.830 81.090,169.482 80.793 C 170.135 80.496,171.268 80.139,172.001 80.000 C 172.733 79.861,173.696 79.559,174.140 79.330 C 174.584 79.101,175.634 78.791,176.473 78.642 C 177.313 78.493,178.365 78.204,178.810 78.000 C 179.256 77.795,180.636 77.448,181.877 77.228 C 183.118 77.008,184.973 76.648,186.000 76.428 C 187.027 76.208,188.707 75.914,189.733 75.774 C 190.760 75.634,192.680 75.336,194.000 75.112 C 195.320 74.887,197.840 74.571,199.600 74.410 C 201.360 74.248,203.640 73.976,204.667 73.806 C 207.914 73.267,229.236 73.360,231.867 73.925 C 233.040 74.177,235.286 74.503,236.857 74.650 C 238.428 74.798,240.145 75.098,240.672 75.319 C 241.200 75.539,242.254 75.800,243.016 75.899 C 243.777 75.997,245.022 76.361,245.783 76.706 C 246.544 77.051,247.342 77.333,247.558 77.333 C 248.147 77.333,250.108 79.071,251.112 80.483 C 252.138 81.926,252.335 84.524,251.571 86.533 C 251.348 87.120,251.098 87.840,251.017 88.133 C 250.879 88.628,249.186 92.171,248.267 93.889 C 246.823 96.587,234.552 108.779,232.267 109.786 C 231.900 109.947,230.986 110.602,230.236 111.240 C 228.873 112.398,228.153 112.887,224.308 115.259 C 223.185 115.952,222.118 116.646,221.935 116.801 C 221.753 116.957,221.093 117.325,220.469 117.621 C 219.844 117.916,218.733 118.490,218.000 118.896 C 214.605 120.778,204.837 125.600,204.420 125.600 C 204.308 125.600,203.890 125.832,203.492 126.116 C 203.093 126.399,202.415 126.717,201.984 126.823 C 201.553 126.928,200.914 127.236,200.564 127.507 C 200.214 127.778,199.734 128.000,199.497 128.001 C 199.260 128.002,198.347 128.361,197.467 128.800 C 196.587 129.239,195.705 129.598,195.508 129.599 C 195.310 129.600,194.830 129.818,194.441 130.085 C 194.052 130.352,193.238 130.712,192.632 130.886 C 192.026 131.060,191.384 131.379,191.205 131.594 C 191.026 131.810,190.442 132.064,189.907 132.159 C 189.371 132.254,188.559 132.557,188.102 132.832 C 187.645 133.108,187.105 133.334,186.902 133.334 C 186.699 133.335,185.813 133.694,184.933 134.133 C 184.053 134.572,183.189 134.932,183.012 134.932 C 182.835 134.933,182.248 135.233,181.708 135.600 C 181.168 135.967,180.486 136.267,180.194 136.267 C 179.902 136.267,179.262 136.515,178.772 136.817 C 176.391 138.289,174.923 136.640,175.448 133.085 C 175.612 131.975,175.862 129.228,176.004 126.982 C 176.146 124.735,176.441 122.275,176.658 121.515 C 176.876 120.755,177.171 118.873,177.315 117.333 C 177.458 115.793,177.747 114.047,177.957 113.452 C 178.168 112.858,178.471 111.160,178.632 109.681 C 178.793 108.201,179.057 106.648,179.218 106.229 C 179.379 105.809,179.684 104.571,179.895 103.477 C 180.107 102.383,180.448 101.230,180.654 100.916 C 180.859 100.602,181.112 99.877,181.215 99.306 C 181.317 98.734,181.686 97.580,182.034 96.741 C 182.382 95.902,182.667 94.975,182.667 94.680 C 182.667 94.385,182.953 93.392,183.303 92.472 C 185.961 85.488,184.876 81.600,180.268 81.600 L 178.177 81.600 176.555 83.616 C 175.663 84.725,174.933 85.777,174.933 85.954 C 174.933 86.131,174.644 86.702,174.290 87.223 C 173.936 87.744,173.504 88.702,173.330 89.352 C 173.156 90.002,172.854 90.833,172.659 91.200 C 172.464 91.567,172.165 92.645,171.993 93.597 C 171.822 94.548,171.527 95.628,171.339 95.997 C 171.150 96.365,170.909 97.447,170.802 98.400 C 170.696 99.353,170.392 100.793,170.128 101.600 C 169.864 102.407,169.571 103.706,169.479 104.487 C 169.386 105.268,169.090 106.468,168.823 107.154 C 168.555 107.839,168.252 109.240,168.151 110.267 C 168.049 111.293,167.744 112.973,167.473 114.000 C 167.202 115.027,166.902 116.887,166.806 118.133 C 166.711 119.380,166.412 121.360,166.142 122.533 C 165.871 123.707,165.571 125.687,165.475 126.933 C 165.380 128.180,165.077 130.220,164.803 131.467 C 164.529 132.713,164.182 135.413,164.032 137.467 C 163.881 139.520,163.545 142.040,163.284 143.067 C 162.500 146.148,162.586 173.677,163.394 178.400 C 163.707 180.233,164.043 182.693,164.141 183.867 C 164.238 185.040,164.534 186.622,164.799 187.382 C 165.064 188.142,165.368 189.282,165.474 189.915 C 166.455 195.751,172.589 198.003,175.204 193.488 C 175.966 192.172,176.030 184.898,175.332 178.926 C 174.828 174.608,174.275 162.464,174.270 155.600 C 174.266 148.957,174.481 148.368,177.082 147.899 C 177.603 147.805,178.499 147.490,179.071 147.198 C 179.644 146.906,180.357 146.665,180.656 146.664 C 180.955 146.663,181.842 146.363,182.626 145.997 C 183.411 145.632,184.251 145.330,184.493 145.325 C 184.735 145.320,185.533 145.022,186.267 144.661 C 187.000 144.300,187.781 144.004,188.002 144.002 C 188.223 144.001,188.943 143.717,189.602 143.371 C 190.261 143.026,191.160 142.661,191.600 142.560 C 192.381 142.382,193.568 141.871,196.000 140.665 C 196.660 140.338,197.551 139.987,197.979 139.885 C 198.407 139.784,199.054 139.468,199.415 139.183 C 199.776 138.899,200.279 138.667,200.532 138.667 C 200.785 138.667,201.434 138.367,201.975 138.000 C 202.515 137.633,203.104 137.333,203.283 137.333 C 203.463 137.333,204.051 137.033,204.591 136.667 C 205.130 136.300,205.730 136.000,205.924 136.000 C 206.118 136.000,206.718 135.700,207.257 135.333 C 207.797 134.967,208.347 134.667,208.479 134.667 C 208.611 134.667,209.608 134.189,210.693 133.606 C 211.779 133.022,213.087 132.359,213.600 132.133 C 214.113 131.906,214.713 131.604,214.933 131.461 C 215.153 131.318,215.873 130.917,216.533 130.569 C 218.574 129.493,221.886 127.531,222.354 127.121 C 222.599 126.906,223.100 126.642,223.467 126.534 C 223.833 126.427,224.373 126.132,224.667 125.880 C 224.960 125.628,225.800 125.080,226.533 124.662 C 227.267 124.245,228.335 123.565,228.907 123.151 C 229.479 122.738,230.043 122.400,230.160 122.400 C 230.444 122.400,232.742 120.842,232.947 120.511 C 233.036 120.367,233.612 120.013,234.227 119.724 C 234.842 119.435,235.925 118.719,236.635 118.133 C 237.344 117.546,238.062 117.064,238.229 117.061 C 238.396 117.058,239.610 116.158,240.926 115.061 C 242.241 113.964,243.422 113.067,243.550 113.067 C 244.464 113.067,254.661 102.772,255.725 100.775 C 256.182 99.919,256.657 99.155,256.782 99.078 C 257.097 98.883,258.667 95.586,258.667 95.119 C 258.667 94.910,258.895 94.448,259.174 94.093 C 259.453 93.738,259.823 92.912,259.996 92.257 C 260.169 91.602,260.458 90.827,260.638 90.533 C 260.819 90.240,261.304 88.599,261.716 86.888 L 262.465 83.775 261.771 80.810 C 260.657 76.053,255.700 70.865,250.933 69.468 C 250.567 69.360,249.907 69.061,249.467 68.804 C 249.027 68.546,248.146 68.256,247.509 68.160 C 246.872 68.064,245.912 67.763,245.376 67.491 C 244.839 67.219,243.620 66.909,242.667 66.802 C 241.713 66.695,240.453 66.436,239.867 66.225 C 239.280 66.015,237.300 65.674,235.467 65.467 C 233.633 65.260,230.933 64.906,229.467 64.680 C 225.862 64.125,204.270 64.124,201.600 64.679 M74.526 91.283 C 74.237 91.475,73.005 91.771,71.789 91.941 C 70.572 92.111,69.252 92.420,68.855 92.629 C 68.458 92.837,67.293 93.408,66.267 93.897 C 59.289 97.219,56.065 105.433,58.010 114.933 C 58.235 116.033,58.588 117.978,58.794 119.255 C 59.000 120.532,59.306 121.833,59.473 122.145 C 59.640 122.457,59.940 124.052,60.139 125.690 C 60.338 127.327,60.653 129.655,60.838 130.864 C 61.404 134.561,60.066 138.843,57.502 141.533 C 56.908 142.157,56.309 142.667,56.170 142.667 C 56.032 142.667,55.296 142.961,54.536 143.320 C 53.595 143.765,52.395 144.042,50.777 144.187 L 48.400 144.400 48.323 147.196 C 48.231 150.571,48.305 150.666,51.051 150.669 C 52.508 150.671,53.235 150.820,54.267 151.327 C 55.000 151.688,55.750 151.987,55.933 151.992 C 57.883 152.041,60.839 158.095,60.820 162.000 C 60.811 163.941,59.791 171.928,59.477 172.514 C 59.308 172.830,59.000 174.134,58.794 175.411 C 58.588 176.688,58.235 178.633,58.010 179.733 C 56.522 187.002,57.994 193.604,62.029 197.747 C 64.063 199.835,64.756 200.277,68.933 202.145 C 69.520 202.407,70.960 202.773,72.133 202.957 C 73.307 203.142,74.381 203.392,74.520 203.513 C 74.817 203.772,75.778 203.802,76.378 203.571 C 76.725 203.438,76.800 202.922,76.800 200.667 C 76.800 197.624,76.786 197.600,74.951 197.600 C 74.398 197.600,73.418 197.319,72.772 196.976 C 72.126 196.632,71.178 196.209,70.665 196.036 C 66.299 194.559,64.046 188.307,65.943 182.933 C 66.176 182.273,66.501 180.500,66.664 178.993 C 66.828 177.486,67.135 175.346,67.347 174.237 C 67.780 171.974,67.884 163.769,67.495 162.506 C 67.365 162.081,67.107 161.013,66.924 160.133 C 66.357 157.420,64.497 153.997,62.358 151.733 C 61.319 150.633,60.138 149.209,59.734 148.568 L 59.001 147.403 59.567 146.406 C 59.878 145.858,61.043 144.446,62.154 143.268 C 67.097 138.029,68.875 129.754,67.227 119.650 C 66.936 117.863,66.620 115.620,66.525 114.667 C 66.430 113.713,66.182 112.413,65.972 111.777 C 65.169 109.340,65.170 103.934,65.975 103.130 C 66.164 102.941,66.533 102.334,66.795 101.781 C 67.562 100.165,72.455 97.333,74.482 97.333 C 76.606 97.333,76.800 97.054,76.800 93.988 C 76.800 91.387,76.773 91.255,76.200 91.101 C 75.333 90.869,75.113 90.893,74.526 91.283 M324.600 91.110 C 324.364 91.205,324.267 92.044,324.267 93.996 L 324.267 96.748 325.106 97.041 C 325.568 97.202,326.378 97.334,326.906 97.334 C 327.435 97.335,328.230 97.557,328.673 97.827 C 329.117 98.098,329.914 98.462,330.446 98.638 C 331.837 99.097,333.887 100.878,334.580 102.232 C 334.816 102.691,335.232 103.353,335.504 103.703 C 336.185 104.576,336.183 108.259,335.500 110.957 C 335.225 112.044,334.912 113.773,334.805 114.800 C 334.698 115.827,334.422 117.447,334.191 118.400 C 332.981 123.394,333.725 135.888,335.350 137.867 C 335.530 138.087,335.900 138.700,336.172 139.230 C 336.869 140.587,337.820 141.891,340.223 144.785 L 342.314 147.303 341.675 148.251 C 341.323 148.773,340.630 149.680,340.135 150.267 C 339.640 150.853,338.707 151.963,338.061 152.732 C 336.624 154.447,334.910 157.857,334.141 160.533 C 333.480 162.834,333.459 173.217,334.111 175.867 C 334.291 176.600,334.608 178.400,334.815 179.867 C 335.021 181.333,335.370 183.313,335.590 184.267 C 336.176 186.814,336.133 190.158,335.503 190.964 C 335.230 191.314,334.758 192.089,334.455 192.687 C 333.880 193.820,331.555 195.796,330.400 196.133 C 330.033 196.240,329.373 196.540,328.933 196.800 C 328.493 197.059,327.425 197.357,326.558 197.460 C 324.146 197.749,324.267 197.581,324.267 200.667 C 324.267 202.922,324.342 203.438,324.688 203.571 C 325.306 203.808,326.339 203.769,326.870 203.489 C 327.125 203.354,328.233 203.096,329.333 202.915 C 331.192 202.608,333.137 201.919,335.067 200.883 C 335.507 200.646,336.227 200.268,336.667 200.041 C 339.042 198.818,341.919 194.995,343.091 191.503 C 344.202 188.194,343.557 177.464,341.990 173.200 C 341.775 172.613,341.410 170.873,341.180 169.333 C 340.950 167.793,340.645 165.753,340.503 164.800 C 340.211 162.836,340.396 160.173,340.950 158.400 C 341.156 157.740,341.382 156.900,341.452 156.533 C 341.523 156.167,341.855 155.521,342.190 155.098 C 343.108 153.941,344.734 152.267,344.940 152.267 C 345.041 152.267,345.740 151.951,346.495 151.564 C 347.493 151.053,348.497 150.807,350.179 150.660 C 353.211 150.395,353.067 150.562,353.067 147.323 C 353.067 144.135,353.348 144.423,349.946 144.134 C 345.843 143.785,342.201 140.945,341.191 137.306 C 340.067 133.260,340.430 126.895,342.115 121.067 C 342.391 120.113,342.753 118.277,342.920 116.986 C 343.087 115.695,343.339 114.337,343.479 113.968 C 344.544 111.167,343.428 102.405,341.665 99.733 C 339.921 97.091,335.776 93.756,333.536 93.194 C 333.143 93.095,332.692 92.858,332.533 92.666 C 332.374 92.475,331.199 92.171,329.922 91.990 C 328.645 91.809,327.334 91.497,327.009 91.297 C 326.427 90.939,325.251 90.847,324.600 91.110 " stroke="none" fill="#f40c0c" fill-rule="evenodd"></path></g></svg>