<svg id="svg" version="1.1" xmlns="http://www.w3.org/2000/svg" xmlns:xlink="http://www.w3.org/1999/xlink" width="400" height="82.75862068965517" viewBox="0, 0, 400,82.75862068965517"><g id="svgg"><path id="path0" d="M233.708 14.005 C 233.502 14.088,233.333 14.258,233.333 14.382 C 233.333 14.507,232.996 15.043,232.583 15.574 C 232.171 16.105,231.830 16.625,231.827 16.728 C 231.823 16.832,231.598 17.176,231.327 17.494 C 230.596 18.348,231.086 18.658,232.771 18.405 C 233.653 18.272,237.909 14.256,237.465 13.975 C 237.176 13.791,234.180 13.816,233.708 14.005 M229.667 21.827 C 229.529 21.917,229.010 22.076,228.513 22.180 C 225.269 22.858,223.160 25.622,222.834 29.622 C 222.477 34.003,222.850 54.894,223.302 55.866 C 223.503 56.296,223.667 56.699,223.667 56.760 C 223.667 57.377,226.932 60.220,227.873 60.423 C 228.172 60.488,228.639 60.654,228.911 60.793 C 229.604 61.147,233.088 61.362,235.284 61.185 C 239.341 60.858,241.829 58.582,242.502 54.583 C 242.685 53.496,242.688 30.936,242.506 29.417 C 242.371 28.293,241.974 26.854,241.656 26.333 C 241.572 26.196,241.349 25.797,241.159 25.447 C 240.600 24.413,239.592 23.496,238.333 22.875 C 238.104 22.762,237.804 22.599,237.667 22.514 C 236.656 21.889,230.393 21.351,229.667 21.827 M123.461 22.321 C 122.935 22.395,122.410 22.532,122.294 22.625 C 122.178 22.718,121.846 22.846,121.555 22.908 C 121.265 22.970,120.856 23.169,120.646 23.351 C 120.436 23.533,120.022 23.832,119.725 24.016 C 118.135 24.998,116.979 27.189,116.515 30.102 C 116.067 32.913,115.971 55.164,116.399 56.840 C 116.527 57.340,116.683 58.133,116.745 58.601 C 116.925 59.960,118.304 61.973,119.544 62.689 C 121.552 63.848,121.688 63.878,124.919 63.881 C 127.364 63.883,128.017 63.833,128.443 63.613 C 128.730 63.464,129.254 63.295,129.608 63.237 C 130.255 63.130,131.056 62.722,132.653 61.688 C 133.466 61.161,133.842 60.688,135.245 58.427 C 135.412 58.157,135.649 57.407,135.772 56.760 C 135.894 56.113,136.071 55.203,136.166 54.738 C 136.503 53.079,136.306 29.963,135.943 28.583 C 135.228 25.867,133.178 23.318,131.371 22.899 C 131.121 22.841,130.736 22.681,130.516 22.543 C 130.048 22.250,125.081 22.094,123.461 22.321 M173.583 22.325 L 171.250 22.417 171.250 24.167 L 171.250 25.917 174.538 26.000 L 177.827 26.083 178.288 26.545 L 178.750 27.008 178.794 43.652 C 178.835 59.295,178.855 60.300,179.127 60.360 C 179.286 60.395,180.429 60.385,181.667 60.337 L 183.917 60.250 184.000 43.464 C 184.079 27.646,184.100 26.661,184.381 26.381 C 184.640 26.121,185.104 26.073,188.047 26.000 L 191.417 25.917 191.417 24.083 L 191.417 22.250 183.667 22.242 C 179.404 22.238,174.867 22.275,173.583 22.325 M199.066 22.293 C 198.834 22.448,198.616 59.179,198.843 59.776 C 198.990 60.161,199.027 60.167,201.392 60.167 L 203.792 60.167 203.896 59.646 C 203.953 59.359,204.000 55.812,204.000 51.762 L 204.000 44.399 204.546 43.869 L 205.093 43.340 209.088 43.295 L 213.083 43.250 213.131 41.793 C 213.206 39.536,213.531 39.697,208.767 39.636 C 205.045 39.588,204.671 39.556,204.350 39.266 C 203.841 38.804,203.796 26.736,204.302 26.278 C 204.567 26.038,205.279 25.999,210.094 25.961 L 215.583 25.917 215.583 24.083 L 215.583 22.250 207.417 22.210 C 202.925 22.188,199.167 22.225,199.066 22.293 M145.077 22.542 C 145.033 22.656,145.017 31.525,145.040 42.250 L 145.083 61.750 147.450 61.744 C 148.752 61.741,149.877 61.679,149.950 61.606 C 150.023 61.532,150.121 57.872,150.167 53.472 L 150.250 45.471 150.718 45.069 C 151.499 44.397,155.039 44.463,156.467 45.177 C 157.524 45.705,158.833 47.083,158.833 47.667 C 158.833 47.827,158.948 48.282,159.087 48.677 C 159.291 49.254,159.352 50.516,159.394 55.041 C 159.459 61.915,159.150 61.270,162.281 61.066 L 164.583 60.917 164.562 54.928 C 164.532 46.520,164.117 45.008,161.405 43.419 C 160.596 42.944,160.333 42.576,160.333 41.915 C 160.333 41.439,161.139 40.500,161.548 40.500 C 161.824 40.500,163.333 38.943,163.333 38.658 C 163.333 38.554,163.483 38.279,163.667 38.045 C 163.850 37.812,164.000 37.419,164.000 37.171 C 164.000 36.923,164.112 36.351,164.249 35.901 C 165.392 32.153,164.074 25.386,161.941 24.048 C 161.561 23.810,161.059 23.486,160.826 23.328 C 160.593 23.170,160.068 22.988,159.659 22.923 C 159.251 22.858,158.547 22.699,158.095 22.569 C 156.966 22.245,145.199 22.220,145.077 22.542 M251.333 41.988 L 251.333 61.652 251.875 61.735 C 252.173 61.780,253.842 61.854,255.583 61.898 C 257.325 61.942,259.537 62.089,260.500 62.225 C 261.462 62.360,263.600 62.496,265.250 62.527 L 268.250 62.583 268.298 60.848 C 268.357 58.686,268.516 58.810,265.467 58.644 C 264.066 58.567,262.808 58.462,262.673 58.410 C 262.538 58.358,261.349 58.252,260.030 58.175 L 257.633 58.033 257.067 57.484 L 256.500 56.935 256.477 47.342 C 256.464 42.067,256.408 34.300,256.352 30.083 L 256.250 22.417 253.792 22.371 L 251.333 22.324 251.333 41.988 M297.167 22.517 C 296.846 22.599,296.093 22.764,295.494 22.884 C 292.912 23.400,290.339 26.083,289.706 28.917 C 289.314 30.673,289.203 55.706,289.580 57.366 C 289.719 57.980,289.833 58.679,289.833 58.918 C 289.833 60.330,292.230 63.719,293.829 64.570 C 295.838 65.638,296.363 65.859,297.244 66.001 C 297.797 66.090,298.512 66.241,298.833 66.336 C 299.704 66.595,302.687 66.552,303.620 66.267 C 304.058 66.133,304.615 65.981,304.857 65.930 C 306.323 65.618,308.556 62.622,308.846 60.580 C 308.930 59.984,309.073 59.178,309.162 58.790 C 309.389 57.809,309.388 32.831,309.162 31.648 C 309.067 31.154,308.920 30.262,308.834 29.667 C 308.383 26.521,305.444 23.299,302.679 22.918 C 302.209 22.854,301.433 22.697,300.954 22.569 C 299.990 22.312,298.069 22.286,297.167 22.517 M275.611 22.944 C 275.550 23.006,275.500 32.079,275.500 43.108 L 275.500 63.160 275.875 63.242 C 277.370 63.570,279.381 63.848,279.929 63.804 L 280.583 63.750 280.626 43.615 C 280.654 29.926,280.613 23.377,280.495 23.157 C 280.319 22.829,275.918 22.637,275.611 22.944 M94.233 23.237 C 91.716 23.365,90.637 23.482,90.441 23.645 C 90.050 23.971,90.015 66.500,90.405 66.824 C 90.583 66.972,90.883 66.977,91.602 66.844 C 92.130 66.746,92.993 66.667,93.520 66.667 C 94.047 66.667,94.671 66.594,94.906 66.504 L 95.333 66.342 95.333 58.648 C 95.333 50.767,95.401 49.817,95.988 49.510 C 96.367 49.311,99.336 48.862,101.083 48.738 C 101.908 48.680,102.734 48.538,102.919 48.422 C 103.104 48.305,103.516 48.155,103.836 48.087 C 104.155 48.019,104.529 47.869,104.667 47.755 C 104.804 47.640,105.292 47.330,105.750 47.067 C 107.506 46.056,108.610 44.265,109.352 41.223 C 110.045 38.380,109.309 28.196,108.315 26.866 C 107.170 25.335,104.974 23.667,104.104 23.667 C 103.967 23.667,103.231 23.517,102.469 23.335 C 100.913 22.961,99.857 22.949,94.233 23.237 M234.279 25.718 C 234.538 25.857,234.986 26.058,235.275 26.165 C 236.018 26.441,236.396 26.914,236.941 28.250 L 237.417 29.417 237.417 41.750 L 237.417 54.083 237.042 54.748 C 236.835 55.113,236.667 55.500,236.667 55.608 C 236.667 55.716,236.443 55.979,236.169 56.194 C 234.489 57.511,234.745 57.417,232.840 57.417 C 230.705 57.417,229.740 56.932,228.687 55.333 L 228.083 54.417 228.083 41.405 L 228.083 28.392 228.545 27.694 C 229.139 26.796,229.974 26.000,230.321 26.000 C 230.470 26.000,230.740 25.897,230.921 25.770 C 231.623 25.279,233.407 25.251,234.279 25.718 M127.794 26.329 C 127.953 26.418,128.352 26.597,128.681 26.726 C 129.443 27.025,130.394 28.201,130.652 29.167 C 130.763 29.579,130.932 30.217,131.029 30.583 C 131.372 31.887,131.056 54.863,130.677 56.197 C 129.331 60.934,123.065 61.184,121.702 56.554 C 121.356 55.379,121.328 31.748,121.671 30.333 C 121.771 29.921,121.924 29.312,122.010 28.981 C 122.186 28.305,123.682 26.670,124.134 26.661 C 124.290 26.658,124.604 26.548,124.833 26.417 C 125.313 26.142,127.354 26.082,127.794 26.329 M156.651 26.638 C 158.820 27.543,159.393 29.071,159.285 33.659 C 159.202 37.201,159.019 37.935,157.926 39.122 C 156.249 40.942,151.050 41.589,150.355 40.064 C 150.148 39.609,150.100 27.810,150.303 27.298 C 150.794 26.065,154.383 25.691,156.651 26.638 M300.588 27.058 C 300.769 27.182,301.138 27.337,301.408 27.403 C 301.883 27.519,302.764 28.319,303.275 29.097 C 304.260 30.602,304.712 55.341,303.814 58.616 C 303.395 60.144,302.823 61.114,302.202 61.354 C 301.954 61.450,301.537 61.634,301.278 61.764 C 299.603 62.602,296.564 61.598,295.550 59.873 C 294.512 58.106,294.506 58.017,294.505 44.000 C 294.504 29.924,294.482 30.245,295.579 28.507 C 296.393 27.217,299.505 26.317,300.588 27.058 M101.704 27.890 C 102.868 28.364,103.314 28.801,103.890 30.031 L 104.333 30.979 104.333 35.911 L 104.333 40.843 103.843 41.815 C 102.923 43.637,102.104 44.128,99.343 44.516 C 96.657 44.893,95.895 44.728,95.533 43.689 C 95.322 43.084,95.472 28.889,95.694 28.460 C 96.217 27.445,99.781 27.107,101.704 27.890 " stroke="none" fill="#f40c0c" fill-rule="evenodd"></path><path id="path1" d="M232.354 12.338 C 232.068 12.624,231.833 12.966,231.833 13.096 C 231.833 13.227,231.770 13.333,231.692 13.333 C 231.549 13.333,230.500 14.922,230.500 15.138 C 230.500 15.201,230.350 15.347,230.167 15.461 C 229.983 15.576,229.833 15.741,229.833 15.827 C 229.833 16.000,229.143 17.100,228.784 17.500 C 228.152 18.203,227.795 19.035,227.886 19.594 C 227.966 20.084,227.932 20.167,227.651 20.167 C 227.471 20.167,227.280 20.280,227.227 20.418 C 227.174 20.556,226.842 20.715,226.489 20.771 C 226.137 20.827,225.721 21.014,225.565 21.187 C 225.409 21.359,225.162 21.500,225.016 21.501 C 224.870 21.501,224.433 21.820,224.046 22.209 C 223.659 22.598,223.263 22.992,223.167 23.083 C 222.712 23.516,222.315 24.099,222.221 24.472 C 222.165 24.697,221.979 25.021,221.809 25.191 C 221.639 25.361,221.500 25.683,221.500 25.907 C 221.500 26.131,221.331 26.600,221.125 26.949 L 220.750 27.583 220.750 41.362 L 220.750 55.140 221.125 55.539 C 221.374 55.804,221.500 56.145,221.500 56.552 C 221.500 56.942,221.620 57.287,221.829 57.496 C 222.010 57.677,222.204 58.008,222.260 58.231 C 222.377 58.695,224.394 60.901,225.009 61.237 C 227.231 62.449,227.742 62.667,228.374 62.667 C 228.791 62.667,229.183 62.780,229.379 62.958 C 229.919 63.448,236.069 63.491,237.057 63.013 C 237.450 62.822,238.001 62.667,238.280 62.667 C 238.560 62.667,238.967 62.527,239.186 62.356 C 239.404 62.186,239.742 61.996,239.936 61.935 C 240.131 61.875,240.423 61.677,240.587 61.496 C 240.751 61.315,240.962 61.167,241.056 61.167 C 241.279 61.167,242.300 60.048,242.592 59.483 C 242.718 59.239,242.936 58.996,243.077 58.942 C 243.218 58.888,243.333 58.657,243.333 58.428 C 243.333 58.200,243.496 57.862,243.694 57.677 C 243.958 57.431,244.077 57.081,244.135 56.379 C 244.179 55.849,244.335 55.232,244.482 55.007 C 244.896 54.375,244.891 29.361,244.477 28.892 C 244.302 28.695,244.180 28.187,244.137 27.488 C 244.089 26.680,243.975 26.270,243.702 25.924 C 243.499 25.666,243.333 25.322,243.333 25.158 C 243.333 24.995,243.185 24.687,243.005 24.472 C 242.824 24.258,242.402 23.746,242.068 23.333 C 241.733 22.921,241.268 22.457,241.034 22.303 C 240.800 22.148,240.543 21.905,240.463 21.761 C 240.383 21.617,240.217 21.500,240.095 21.500 C 239.974 21.500,239.781 21.388,239.668 21.251 C 239.554 21.114,239.151 20.920,238.772 20.819 C 238.393 20.718,237.952 20.519,237.792 20.376 C 237.600 20.204,237.011 20.082,236.054 20.016 L 234.607 19.917 237.637 16.885 C 239.303 15.217,240.667 13.781,240.667 13.694 C 240.667 13.607,240.779 13.492,240.917 13.440 C 241.057 13.386,241.166 13.140,241.164 12.880 C 241.159 11.913,241.194 11.921,236.861 11.867 L 232.876 11.817 232.354 12.338 M238.959 13.461 C 238.998 13.576,237.877 14.836,236.469 16.259 L 233.908 18.846 232.162 18.798 L 230.417 18.750 230.362 18.276 C 230.321 17.918,230.475 17.604,230.987 16.996 C 231.361 16.553,231.667 16.079,231.667 15.943 C 231.667 15.807,231.965 15.370,232.329 14.973 C 232.693 14.575,232.993 14.151,232.996 14.031 C 233.012 13.200,233.178 13.156,236.119 13.204 C 238.170 13.238,238.907 13.305,238.959 13.461 M123.376 20.155 C 123.079 20.230,122.741 20.368,122.626 20.463 C 122.511 20.558,122.060 20.689,121.623 20.754 C 121.187 20.819,120.650 21.013,120.430 21.186 C 120.210 21.359,119.914 21.500,119.772 21.500 C 119.083 21.500,116.273 24.262,116.052 25.156 C 115.994 25.391,115.808 25.681,115.640 25.801 C 115.471 25.921,115.333 26.169,115.333 26.353 C 115.333 26.537,115.144 27.101,114.913 27.606 L 114.493 28.525 114.538 43.912 C 114.579 57.962,114.607 59.325,114.859 59.608 C 115.011 59.778,115.218 60.227,115.319 60.606 C 115.420 60.984,115.614 61.387,115.751 61.501 C 115.888 61.615,116.000 61.797,116.000 61.907 C 116.000 62.103,117.731 64.000,117.909 64.000 C 117.959 64.000,118.150 64.150,118.333 64.333 C 118.517 64.517,118.805 64.667,118.974 64.667 C 119.143 64.667,119.413 64.812,119.574 64.990 C 119.759 65.194,120.197 65.355,120.762 65.425 C 121.254 65.487,121.743 65.641,121.849 65.769 C 122.125 66.101,127.279 66.103,127.755 65.771 C 127.935 65.644,128.631 65.486,129.301 65.419 C 130.230 65.327,130.566 65.222,130.717 64.982 C 130.841 64.783,131.104 64.667,131.431 64.667 C 131.737 64.667,132.072 64.530,132.250 64.333 C 132.416 64.150,132.682 64.000,132.842 64.000 C 133.001 64.000,133.489 63.663,133.926 63.250 C 134.362 62.837,134.778 62.500,134.849 62.500 C 134.920 62.500,135.025 62.350,135.083 62.167 C 135.142 61.983,135.292 61.833,135.417 61.833 C 135.542 61.833,135.690 61.690,135.745 61.515 C 135.801 61.341,135.949 61.158,136.074 61.110 C 136.199 61.062,136.354 60.785,136.418 60.494 C 136.482 60.204,136.676 59.824,136.850 59.650 C 137.024 59.476,137.167 59.132,137.167 58.886 C 137.167 58.640,137.335 58.259,137.542 58.039 L 137.917 57.640 137.969 43.362 C 138.025 28.153,137.998 27.240,137.489 26.693 C 137.312 26.503,137.167 26.160,137.167 25.932 C 137.167 25.704,136.979 25.315,136.750 25.068 C 136.521 24.820,136.333 24.527,136.333 24.417 C 136.333 24.306,136.146 24.013,135.917 23.766 C 135.688 23.518,135.500 23.245,135.500 23.158 C 135.500 23.071,135.428 23.000,135.341 23.000 C 135.253 23.000,134.994 22.813,134.765 22.583 C 134.536 22.354,134.235 22.167,134.097 22.167 C 133.958 22.167,133.765 22.017,133.667 21.833 C 133.569 21.650,133.383 21.500,133.254 21.500 C 133.125 21.500,132.771 21.355,132.468 21.179 C 132.165 21.002,131.617 20.806,131.250 20.744 C 130.883 20.681,130.396 20.507,130.167 20.357 C 129.699 20.052,124.409 19.894,123.376 20.155 M170.226 20.119 C 169.193 20.249,169.090 20.553,169.026 23.648 C 168.929 28.291,168.805 28.167,173.523 28.167 L 176.662 28.167 176.706 45.077 C 176.748 61.076,176.766 62.004,177.049 62.286 C 177.428 62.665,183.497 62.648,184.083 62.267 C 184.267 62.148,184.690 61.999,185.025 61.937 C 186.156 61.727,186.078 62.938,186.135 44.641 L 186.186 28.000 189.331 28.000 L 192.476 28.000 193.071 27.439 L 193.667 26.877 193.667 24.033 C 193.667 20.829,193.584 20.453,192.820 20.187 C 192.312 20.010,171.592 19.948,170.226 20.119 M197.481 20.115 C 197.220 20.156,196.969 20.351,196.856 20.600 C 196.614 21.132,196.588 61.284,196.830 61.667 C 196.963 61.878,197.634 61.917,201.175 61.917 L 205.363 61.917 205.681 61.523 C 205.985 61.148,206.000 60.761,206.000 53.327 L 206.000 45.525 210.347 45.471 C 215.699 45.404,215.167 45.826,215.167 41.647 C 215.167 37.597,215.703 38.000,210.321 38.000 L 206.000 38.000 206.000 32.750 C 206.000 27.304,206.041 26.996,206.667 27.750 C 206.921 28.057,216.148 28.126,216.934 27.827 C 217.782 27.504,217.822 27.327,217.828 23.901 C 217.833 20.874,217.816 20.703,217.483 20.401 C 217.150 20.100,199.179 19.843,197.481 20.115 M150.955 20.402 C 150.770 20.587,149.927 20.650,147.013 20.694 C 143.572 20.746,143.289 20.773,143.070 21.074 C 142.869 21.349,142.833 24.527,142.833 42.365 L 142.833 63.333 143.185 63.685 C 143.654 64.154,147.859 64.106,148.817 63.620 C 149.155 63.450,149.766 63.333,150.326 63.333 C 151.710 63.333,151.667 63.474,151.667 58.999 C 151.667 55.797,151.712 55.003,151.911 54.740 C 152.109 54.478,152.157 53.695,152.161 50.625 L 152.167 46.833 153.923 46.833 C 155.809 46.833,156.667 47.156,156.667 47.865 C 156.667 48.031,156.814 48.314,156.994 48.494 C 157.306 48.806,157.324 49.115,157.369 55.060 C 157.411 60.614,157.447 61.333,157.695 61.608 C 157.849 61.778,158.025 62.120,158.087 62.368 C 158.279 63.140,158.571 63.251,160.300 63.210 C 161.440 63.183,161.963 63.101,162.164 62.919 C 162.381 62.723,162.889 62.667,164.446 62.667 C 166.162 62.667,166.500 62.622,166.808 62.355 C 167.163 62.047,167.298 61.267,167.025 61.099 C 166.947 61.051,166.831 60.202,166.767 59.214 C 166.695 58.104,166.558 57.276,166.409 57.048 C 166.063 56.520,166.068 52.894,166.416 52.227 C 166.734 51.617,166.737 50.656,166.422 50.240 C 166.242 50.002,166.176 49.428,166.172 48.064 C 166.167 46.469,166.120 46.153,165.833 45.788 C 165.650 45.555,165.500 45.225,165.500 45.056 C 165.500 44.654,164.474 43.010,164.220 43.004 C 164.111 43.002,163.975 42.850,163.917 42.667 C 163.859 42.484,163.629 42.288,163.406 42.232 C 162.894 42.104,162.883 42.142,163.637 41.388 C 164.593 40.432,165.500 39.162,165.500 38.781 C 165.500 38.595,165.631 38.298,165.792 38.121 C 166.058 37.827,166.083 37.292,166.083 32.083 C 166.083 26.874,166.058 26.340,165.792 26.046 C 165.631 25.869,165.500 25.564,165.500 25.368 C 165.500 25.037,164.127 23.158,163.784 23.022 C 163.699 22.988,163.474 22.781,163.285 22.563 C 163.095 22.345,162.849 22.167,162.738 22.167 C 162.627 22.167,162.494 22.058,162.443 21.925 C 162.392 21.793,162.028 21.599,161.634 21.495 C 161.239 21.391,160.741 21.193,160.526 21.055 C 160.282 20.899,159.529 20.770,158.526 20.712 C 157.592 20.658,156.779 20.524,156.588 20.393 C 156.107 20.062,151.287 20.070,150.955 20.402 M249.887 20.777 C 249.055 20.952,249.089 19.973,249.142 42.062 C 249.184 59.318,249.230 62.789,249.421 62.986 C 249.547 63.115,250.085 63.257,250.617 63.301 C 251.148 63.345,251.767 63.502,251.992 63.649 C 252.340 63.877,253.156 63.925,257.451 63.971 C 260.228 64.001,262.500 64.091,262.500 64.172 C 262.500 64.715,269.553 64.923,270.081 64.395 C 270.530 63.947,270.386 57.477,269.917 57.009 C 269.606 56.699,269.273 56.669,264.925 56.561 C 261.566 56.478,260.148 56.383,259.841 56.224 C 259.608 56.102,259.210 56.002,258.958 56.001 L 258.500 56.000 258.500 38.604 C 258.500 22.635,258.477 21.189,258.225 20.979 C 257.954 20.754,250.822 20.581,249.887 20.777 M274.141 20.927 C 273.790 21.078,273.492 21.343,273.435 21.553 C 273.194 22.455,273.328 39.355,273.581 39.891 C 273.792 40.339,273.836 42.239,273.873 52.700 C 273.906 62.048,273.965 65.032,274.119 65.185 C 274.252 65.319,275.210 65.414,276.952 65.466 C 278.797 65.521,279.682 65.612,279.912 65.772 C 280.477 66.163,282.098 66.071,282.407 65.630 C 282.853 64.993,282.796 21.697,282.349 21.145 C 281.930 20.628,275.248 20.450,274.141 20.927 M295.009 20.819 C 294.601 20.890,294.238 21.035,294.203 21.141 C 294.168 21.247,293.842 21.381,293.480 21.439 C 293.087 21.502,292.754 21.670,292.655 21.856 C 292.563 22.027,292.347 22.167,292.175 22.167 C 291.758 22.167,291.176 22.660,289.518 24.417 C 289.345 24.600,289.148 24.938,289.081 25.167 C 289.014 25.396,288.818 25.718,288.646 25.881 C 288.474 26.045,288.333 26.377,288.333 26.618 C 288.333 26.860,288.202 27.202,288.042 27.379 C 287.398 28.090,287.547 60.167,288.193 60.167 C 288.270 60.167,288.333 60.429,288.333 60.750 C 288.333 61.095,288.459 61.459,288.642 61.642 C 288.811 61.811,289.032 62.184,289.131 62.470 C 289.231 62.756,289.580 63.258,289.906 63.584 C 290.233 63.911,290.500 64.207,290.500 64.243 C 290.500 64.356,291.521 65.333,291.639 65.333 C 291.702 65.333,291.847 65.483,291.961 65.667 C 292.076 65.850,292.263 66.000,292.378 66.000 C 292.493 66.000,292.674 66.141,292.782 66.312 C 292.889 66.484,293.188 66.677,293.447 66.742 C 293.705 66.807,294.042 66.972,294.195 67.110 C 294.349 67.249,294.799 67.405,295.195 67.458 C 295.592 67.510,296.109 67.695,296.344 67.868 C 296.952 68.316,305.103 68.260,305.608 67.805 C 305.778 67.651,306.117 67.476,306.363 67.415 C 306.608 67.353,306.938 67.160,307.097 66.985 C 307.255 66.810,307.467 66.667,307.567 66.668 C 307.872 66.670,309.483 64.791,309.588 64.311 C 309.643 64.063,309.787 63.823,309.910 63.776 C 310.033 63.728,310.187 63.372,310.253 62.984 C 310.318 62.595,310.513 62.047,310.685 61.764 C 311.172 60.967,311.175 29.502,310.689 28.535 C 310.518 28.195,310.329 27.643,310.268 27.308 C 310.207 26.974,310.052 26.612,309.923 26.505 C 309.794 26.398,309.639 26.087,309.579 25.814 C 309.519 25.541,309.327 25.228,309.152 25.119 C 308.977 25.009,308.833 24.853,308.833 24.771 C 308.833 24.563,306.360 22.167,306.145 22.167 C 306.048 22.167,305.789 22.025,305.569 21.852 C 305.349 21.679,304.888 21.485,304.543 21.421 C 304.199 21.357,303.778 21.180,303.608 21.028 C 303.265 20.720,296.525 20.557,295.009 20.819 M236.868 21.668 C 237.261 21.846,237.740 21.994,237.933 21.996 C 238.125 21.998,238.417 22.150,238.583 22.333 C 238.749 22.517,239.018 22.667,239.181 22.667 C 239.608 22.667,241.500 24.519,241.500 24.937 C 241.500 25.127,241.650 25.417,241.833 25.583 C 242.017 25.749,242.167 26.051,242.167 26.253 C 242.167 26.456,242.309 26.803,242.483 27.024 C 243.484 28.297,243.472 55.244,242.469 56.833 C 242.325 57.063,242.159 57.455,242.101 57.705 C 241.773 59.117,238.925 61.176,236.833 61.513 C 236.286 61.601,235.644 61.747,235.408 61.837 C 234.833 62.055,231.896 62.045,231.166 61.822 C 230.845 61.725,230.078 61.577,229.460 61.494 C 228.842 61.411,228.167 61.237,227.960 61.107 C 227.753 60.977,227.316 60.786,226.990 60.683 C 225.680 60.268,222.667 56.704,222.667 55.569 C 222.667 55.342,222.535 54.877,222.375 54.536 C 221.940 53.613,221.835 29.615,222.261 28.475 C 222.410 28.076,222.585 27.412,222.650 27.000 C 222.783 26.156,223.329 25.236,224.282 24.250 C 225.344 23.151,226.767 22.000,227.065 22.000 C 227.218 22.000,227.623 21.874,227.964 21.720 C 229.360 21.089,235.512 21.053,236.868 21.668 M89.083 21.454 C 88.900 21.499,88.656 21.612,88.542 21.705 C 88.189 21.991,88.242 68.383,88.595 68.676 C 89.137 69.126,95.333 68.793,95.333 68.314 C 95.333 68.233,95.656 68.167,96.050 68.167 C 97.227 68.167,97.167 68.641,97.167 59.401 L 97.167 51.036 99.681 50.975 C 101.742 50.925,102.231 50.866,102.390 50.648 C 102.504 50.492,102.966 50.334,103.508 50.267 C 104.016 50.203,104.654 50.005,104.924 49.827 C 105.195 49.648,105.525 49.502,105.658 49.501 C 106.200 49.499,109.500 46.672,109.500 46.210 C 109.500 46.123,109.650 45.916,109.833 45.750 C 110.017 45.584,110.167 45.328,110.167 45.181 C 110.167 45.034,110.354 44.562,110.583 44.131 C 110.858 43.615,111.000 43.081,111.000 42.562 C 111.000 42.048,111.101 41.665,111.292 41.454 C 111.557 41.160,111.583 40.630,111.583 35.500 C 111.583 30.370,111.557 29.840,111.292 29.546 C 111.100 29.334,111.000 28.952,111.000 28.430 C 111.000 27.888,110.894 27.501,110.667 27.212 C 110.483 26.979,110.333 26.666,110.333 26.516 C 110.333 26.367,110.146 25.968,109.917 25.631 C 109.688 25.294,109.500 24.950,109.500 24.867 C 109.500 24.659,107.743 23.121,107.273 22.917 C 107.062 22.825,106.758 22.619,106.599 22.458 C 106.440 22.298,106.079 22.167,105.798 22.167 C 105.517 22.167,105.197 22.044,105.088 21.894 C 104.978 21.745,104.520 21.562,104.069 21.488 C 103.201 21.345,89.650 21.315,89.083 21.454 M128.802 21.668 C 129.564 21.851,130.398 22.000,130.655 22.000 C 130.912 22.000,131.312 22.150,131.545 22.333 C 131.779 22.517,132.114 22.667,132.291 22.667 C 133.073 22.667,135.998 26.106,136.001 27.030 C 136.002 27.243,136.151 27.642,136.333 27.917 C 136.850 28.697,136.847 55.837,136.330 56.977 C 136.148 57.376,136.000 57.869,136.000 58.072 C 136.000 58.275,135.663 58.923,135.252 59.512 C 134.840 60.101,134.503 60.655,134.502 60.742 C 134.499 60.958,133.476 62.000,133.266 62.000 C 133.174 62.000,132.679 62.294,132.167 62.653 C 130.994 63.475,129.602 63.985,128.000 64.179 C 127.313 64.262,126.263 64.388,125.667 64.459 C 122.189 64.871,117.217 62.886,117.171 61.067 C 117.169 60.967,117.026 60.722,116.854 60.524 C 116.683 60.326,116.493 59.855,116.432 59.478 C 116.372 59.100,116.213 58.634,116.078 58.442 C 115.635 57.809,115.719 29.544,116.167 28.667 C 116.350 28.307,116.501 27.804,116.503 27.548 C 116.505 27.293,116.749 26.718,117.045 26.271 C 117.341 25.824,117.738 25.186,117.926 24.854 C 118.281 24.227,120.365 22.671,120.853 22.668 C 121.001 22.667,121.312 22.517,121.545 22.333 C 121.779 22.150,122.178 22.000,122.432 22.000 C 122.687 22.000,123.350 21.891,123.906 21.759 C 125.495 21.379,125.533 21.373,126.500 21.354 C 127.004 21.344,128.040 21.485,128.802 21.668 M191.741 21.870 C 192.046 22.307,192.113 25.477,191.827 26.011 C 191.666 26.312,191.450 26.333,188.580 26.333 L 185.505 26.333 184.961 26.820 L 184.417 27.306 184.373 43.861 C 184.332 59.134,184.307 60.433,184.049 60.625 C 183.640 60.930,178.611 60.918,178.357 60.612 C 178.226 60.454,178.160 55.611,178.128 43.875 L 178.083 27.360 177.679 26.930 L 177.275 26.500 174.171 26.500 C 170.413 26.500,170.667 26.670,170.667 24.154 C 170.667 21.493,169.727 21.766,179.234 21.664 C 183.643 21.616,188.202 21.560,189.366 21.539 C 191.385 21.502,191.493 21.517,191.741 21.870 M216.000 21.833 C 216.292 22.125,216.333 22.389,216.333 23.945 C 216.333 26.546,216.853 26.333,210.497 26.333 C 205.402 26.333,205.196 26.346,204.772 26.679 L 204.333 27.024 204.333 32.710 C 204.333 39.965,203.736 39.167,209.164 39.167 C 214.278 39.167,213.857 38.924,213.797 41.835 L 213.750 44.083 209.360 44.167 C 204.994 44.250,204.968 44.252,204.652 44.643 C 204.349 45.018,204.333 45.405,204.333 52.652 C 204.333 58.352,204.283 60.317,204.133 60.467 C 203.994 60.606,203.096 60.667,201.167 60.667 C 199.237 60.667,198.339 60.606,198.200 60.467 C 197.935 60.201,197.908 22.317,198.173 21.822 C 198.447 21.309,215.486 21.320,216.000 21.833 M159.590 22.336 C 159.989 22.518,160.458 22.667,160.632 22.667 C 160.806 22.667,161.122 22.817,161.333 23.000 C 161.545 23.183,161.818 23.333,161.942 23.333 C 162.283 23.333,163.500 24.500,163.500 24.827 C 163.500 24.985,163.646 25.247,163.824 25.408 C 164.002 25.569,164.197 25.937,164.257 26.226 C 164.317 26.514,164.490 26.938,164.641 27.167 C 165.047 27.780,165.056 36.383,164.652 37.007 C 164.506 37.233,164.339 37.661,164.281 37.960 C 164.089 38.938,163.145 40.101,161.792 41.025 C 160.625 41.821,160.497 42.355,161.385 42.726 C 161.689 42.853,162.421 43.445,163.012 44.042 C 164.076 45.117,164.320 45.580,164.836 47.500 C 164.922 47.821,164.994 50.568,164.996 53.606 C 164.999 58.250,165.043 59.262,165.272 59.970 C 165.746 61.437,165.468 61.553,161.667 61.467 L 159.417 61.417 159.083 60.750 C 158.774 60.132,158.744 59.652,158.664 54.166 C 158.567 47.484,158.639 47.848,157.135 46.384 C 155.561 44.851,151.443 44.716,150.665 46.171 C 150.563 46.360,150.500 49.368,150.500 54.000 C 150.500 62.718,150.602 62.167,148.988 62.167 C 148.346 62.167,147.095 62.248,146.209 62.346 C 144.733 62.511,144.580 62.501,144.380 62.228 C 144.061 61.791,144.145 22.622,144.466 22.300 C 145.017 21.748,158.370 21.780,159.590 22.336 M256.711 22.234 C 256.956 22.480,257.167 35.472,257.167 50.370 L 257.167 56.685 257.677 57.152 C 258.264 57.688,259.473 57.833,263.330 57.833 C 265.437 57.833,268.394 58.215,268.792 58.538 C 269.178 58.852,269.078 63.286,268.681 63.412 C 268.361 63.514,265.562 63.225,265.301 63.063 C 265.223 63.015,263.230 62.906,260.872 62.820 C 258.513 62.735,256.188 62.593,255.705 62.504 C 255.222 62.416,254.035 62.292,253.067 62.230 C 251.961 62.158,251.224 62.033,251.084 61.894 C 250.829 61.639,250.624 22.828,250.875 22.292 C 251.060 21.897,256.322 21.845,256.711 22.234 M281.157 22.269 C 281.392 22.525,281.504 63.597,281.271 63.917 C 280.963 64.337,275.817 64.223,275.380 63.786 C 274.962 63.367,274.913 22.757,275.330 22.254 C 275.600 21.928,280.856 21.942,281.157 22.269 M302.690 22.330 C 303.090 22.511,303.618 22.661,303.865 22.663 C 304.112 22.665,304.361 22.743,304.419 22.837 C 304.476 22.930,304.891 23.192,305.339 23.420 C 306.423 23.969,307.330 24.785,307.615 25.468 C 307.743 25.774,308.106 26.391,308.421 26.840 C 308.745 27.301,309.042 27.965,309.104 28.369 C 309.164 28.762,309.334 29.308,309.482 29.583 C 309.894 30.352,309.891 59.991,309.478 60.750 C 309.328 61.025,309.154 61.564,309.090 61.949 C 309.026 62.333,308.867 62.736,308.737 62.844 C 308.607 62.952,308.500 63.158,308.500 63.302 C 308.500 63.679,305.892 66.147,305.364 66.269 C 305.118 66.326,304.729 66.495,304.500 66.645 C 303.867 67.058,297.989 67.039,297.217 66.622 C 296.923 66.463,296.511 66.333,296.300 66.333 C 295.898 66.333,294.088 65.445,293.701 65.058 C 293.577 64.935,293.352 64.833,293.201 64.833 C 292.859 64.833,291.000 63.017,291.000 62.683 C 291.000 62.548,290.859 62.283,290.686 62.094 C 290.213 61.575,289.500 60.137,289.500 59.701 C 289.500 59.490,289.369 59.077,289.208 58.783 C 288.774 57.989,288.756 29.162,289.190 28.500 C 289.340 28.271,289.515 27.786,289.579 27.423 C 289.802 26.154,293.196 22.675,294.223 22.662 C 294.421 22.660,294.883 22.516,295.250 22.342 C 296.271 21.859,301.633 21.850,302.690 22.330 M103.833 23.000 C 104.193 23.183,104.645 23.333,104.839 23.333 C 105.652 23.333,109.000 26.170,109.000 26.859 C 109.000 26.990,109.152 27.393,109.339 27.756 C 110.285 29.601,110.364 41.661,109.438 43.073 C 109.313 43.265,109.158 43.659,109.094 43.949 C 109.031 44.239,108.875 44.563,108.748 44.669 C 108.621 44.774,108.356 45.193,108.159 45.599 C 107.797 46.347,106.708 47.370,106.064 47.567 C 105.869 47.627,105.577 47.823,105.413 48.004 C 105.249 48.185,104.958 48.334,104.766 48.334 C 104.574 48.335,104.192 48.485,103.917 48.667 C 103.642 48.849,103.154 48.998,102.833 48.999 C 102.512 49.000,101.724 49.150,101.083 49.333 C 100.261 49.568,99.418 49.667,98.222 49.667 C 97.290 49.667,96.409 49.712,96.264 49.768 C 96.028 49.858,96.000 50.753,95.997 58.143 C 95.995 67.398,96.083 66.800,94.692 66.996 C 94.126 67.076,93.386 67.233,93.047 67.345 C 92.337 67.580,89.932 67.651,89.723 67.444 C 89.443 67.166,89.551 23.008,89.833 22.830 C 90.394 22.476,103.109 22.630,103.833 23.000 M230.996 26.301 C 230.208 26.518,229.373 27.330,228.842 28.398 L 228.321 29.447 228.369 41.623 C 228.413 52.945,228.437 53.821,228.708 54.121 C 228.869 54.298,229.000 54.534,229.000 54.646 C 229.000 54.911,230.589 56.500,230.854 56.500 C 230.966 56.500,231.189 56.620,231.351 56.766 C 232.703 57.989,235.988 56.308,236.611 54.073 C 236.969 52.792,236.950 31.198,236.590 29.333 C 236.102 26.806,233.764 25.539,230.996 26.301 M124.917 26.970 C 124.222 27.128,123.398 27.781,122.776 28.667 L 122.250 29.417 122.205 43.153 C 122.162 56.493,122.170 56.899,122.481 57.236 C 122.656 57.427,122.826 57.725,122.858 57.899 C 122.890 58.072,123.067 58.294,123.250 58.392 C 123.433 58.490,123.787 58.704,124.035 58.868 C 124.773 59.356,127.086 59.289,128.099 58.750 C 129.184 58.173,129.267 58.088,129.833 56.975 L 130.333 55.990 130.333 42.684 C 130.333 29.915,130.321 29.362,130.020 28.980 C 129.848 28.761,129.679 28.438,129.645 28.263 C 129.465 27.332,126.678 26.570,124.917 26.970 M151.453 26.963 C 150.544 27.357,150.502 27.649,150.501 33.612 L 150.500 39.141 150.931 39.654 C 151.743 40.618,155.932 40.243,157.135 39.099 C 158.593 37.714,158.583 37.754,158.583 33.404 L 158.583 29.558 158.105 28.612 C 157.842 28.092,157.533 27.667,157.419 27.667 C 157.305 27.667,157.008 27.506,156.758 27.310 C 156.277 26.931,152.148 26.661,151.453 26.963 M234.504 28.191 C 235.381 29.132,235.360 28.741,235.301 42.417 C 235.244 55.635,235.305 54.988,234.083 55.262 C 233.808 55.323,233.383 55.476,233.138 55.601 C 232.850 55.748,232.672 55.767,232.635 55.655 C 232.603 55.560,232.246 55.408,231.842 55.317 C 230.931 55.112,230.424 54.623,230.179 53.714 C 230.076 53.329,229.918 52.969,229.829 52.914 C 229.462 52.687,229.626 30.151,230.000 29.417 C 230.183 29.057,230.336 28.647,230.340 28.506 C 230.353 27.959,231.344 27.532,232.638 27.516 L 233.859 27.500 234.504 28.191 M297.917 27.666 C 296.878 27.940,296.161 28.462,295.703 29.276 L 295.250 30.083 295.297 44.181 L 295.345 58.278 295.808 59.181 C 296.627 60.774,298.154 61.487,300.329 61.289 C 301.398 61.192,302.663 60.574,302.665 60.147 C 302.666 59.999,302.817 59.688,303.000 59.455 C 303.327 59.038,303.333 58.778,303.333 44.779 L 303.333 30.527 302.928 29.722 C 301.986 27.853,300.116 27.086,297.917 27.666 M97.500 28.323 L 96.083 28.417 96.083 36.167 L 96.083 43.917 98.500 43.917 L 100.917 43.917 101.667 43.390 C 103.670 41.983,103.860 41.295,103.791 35.698 C 103.699 28.376,103.325 27.936,97.500 28.323 M128.105 28.762 C 128.414 29.089,128.667 29.464,128.667 29.595 C 128.667 29.726,128.742 29.833,128.833 29.833 C 128.943 29.833,129.000 34.219,129.000 42.657 L 129.000 55.481 128.627 56.114 C 128.229 56.788,127.747 57.331,127.542 57.337 C 127.473 57.339,127.229 57.487,127.000 57.667 C 126.578 57.997,125.000 58.151,125.000 57.861 C 125.000 57.785,124.829 57.632,124.620 57.520 C 124.411 57.408,124.074 57.002,123.870 56.617 L 123.499 55.917 123.500 43.062 C 123.500 32.095,123.535 30.178,123.739 30.009 C 123.871 29.900,124.027 29.590,124.086 29.322 C 124.145 29.053,124.288 28.833,124.404 28.833 C 124.520 28.833,124.751 28.683,124.917 28.500 C 125.493 27.863,127.406 28.020,128.105 28.762 M156.310 28.669 C 156.586 28.945,156.860 29.320,156.917 29.502 C 156.975 29.684,157.092 29.833,157.178 29.833 C 157.531 29.833,157.365 36.491,157.000 36.955 C 156.817 37.188,156.667 37.512,156.667 37.676 C 156.667 37.873,156.493 38.012,156.155 38.086 C 155.874 38.148,155.604 38.304,155.554 38.432 C 155.485 38.612,155.074 38.667,153.789 38.667 L 152.113 38.667 152.223 34.792 C 152.283 32.660,152.333 30.298,152.333 29.542 L 152.333 28.167 154.071 28.167 C 155.780 28.167,155.816 28.175,156.310 28.669 M300.828 29.350 C 301.227 29.558,301.500 29.820,301.500 29.994 C 301.500 30.156,301.650 30.479,301.833 30.712 C 302.188 31.163,302.378 58.333,302.027 58.333 C 301.950 58.333,301.796 58.533,301.684 58.777 C 301.166 59.915,298.733 60.634,298.394 59.750 C 298.341 59.612,298.207 59.500,298.096 59.500 C 297.820 59.500,297.289 58.864,297.017 58.208 C 296.894 57.910,296.727 57.667,296.646 57.667 C 296.367 57.667,296.463 30.738,296.744 30.505 C 296.877 30.394,297.037 30.145,297.098 29.953 C 297.415 28.956,299.443 28.628,300.828 29.350 M101.617 30.199 L 102.167 30.732 102.167 35.917 L 102.167 41.102 101.726 41.635 C 101.474 41.938,101.127 42.167,100.918 42.167 C 100.717 42.167,100.416 42.317,100.250 42.500 C 99.994 42.783,99.737 42.833,98.558 42.833 L 97.167 42.833 97.167 36.250 L 97.167 29.667 99.117 29.667 L 101.067 29.667 101.617 30.199 " stroke="none" fill="#0f0404" fill-rule="evenodd"></path><path id="path2" d="M233.175 13.485 C 233.079 13.665,232.998 13.910,232.996 14.031 C 232.993 14.151,232.693 14.575,232.329 14.973 C 231.965 15.370,231.667 15.807,231.667 15.943 C 231.667 16.079,231.361 16.553,230.987 16.996 C 230.475 17.604,230.321 17.918,230.362 18.276 L 230.417 18.750 232.162 18.798 L 233.908 18.846 236.469 16.259 C 237.877 14.836,238.998 13.576,238.959 13.461 C 238.825 13.058,233.391 13.081,233.175 13.485 M237.465 13.975 C 237.909 14.256,233.653 18.272,232.771 18.405 C 231.086 18.658,230.596 18.348,231.327 17.494 C 231.598 17.176,231.823 16.832,231.827 16.728 C 231.830 16.625,232.171 16.105,232.583 15.574 C 232.996 15.043,233.333 14.507,233.333 14.382 C 233.333 13.911,236.821 13.566,237.465 13.975 M229.750 21.318 C 229.108 21.385,228.304 21.566,227.964 21.720 C 227.623 21.874,227.218 22.000,227.065 22.000 C 226.767 22.000,225.344 23.151,224.282 24.250 C 223.329 25.236,222.783 26.156,222.650 27.000 C 222.585 27.412,222.410 28.076,222.261 28.475 C 221.835 29.615,221.940 53.613,222.375 54.536 C 222.535 54.877,222.667 55.342,222.667 55.569 C 222.667 56.704,225.680 60.268,226.990 60.683 C 227.316 60.786,227.753 60.977,227.960 61.107 C 228.167 61.237,228.842 61.411,229.460 61.494 C 230.078 61.577,230.845 61.725,231.166 61.822 C 231.896 62.045,234.833 62.055,235.408 61.837 C 235.644 61.747,236.286 61.601,236.833 61.513 C 238.925 61.176,241.773 59.117,242.101 57.705 C 242.159 57.455,242.325 57.063,242.469 56.833 C 243.472 55.244,243.484 28.297,242.483 27.024 C 242.309 26.803,242.167 26.456,242.167 26.253 C 242.167 26.051,242.017 25.749,241.833 25.583 C 241.650 25.417,241.500 25.127,241.500 24.937 C 241.500 24.519,239.608 22.667,239.181 22.667 C 239.018 22.667,238.749 22.517,238.583 22.333 C 238.417 22.150,238.125 21.998,237.933 21.996 C 237.740 21.994,237.261 21.846,236.868 21.668 C 236.055 21.299,231.897 21.095,229.750 21.318 M125.250 21.445 C 125.067 21.484,124.462 21.626,123.906 21.759 C 123.350 21.891,122.687 22.000,122.432 22.000 C 122.178 22.000,121.779 22.150,121.545 22.333 C 121.312 22.517,121.001 22.667,120.853 22.668 C 120.365 22.671,118.281 24.227,117.926 24.854 C 117.738 25.186,117.341 25.824,117.045 26.271 C 116.749 26.718,116.505 27.293,116.503 27.548 C 116.501 27.804,116.350 28.307,116.167 28.667 C 115.719 29.544,115.635 57.809,116.078 58.442 C 116.213 58.634,116.372 59.100,116.432 59.478 C 116.493 59.855,116.683 60.326,116.854 60.524 C 117.026 60.722,117.169 60.967,117.171 61.067 C 117.217 62.886,122.189 64.871,125.667 64.459 C 126.263 64.388,127.313 64.262,128.000 64.179 C 129.602 63.985,130.994 63.475,132.167 62.653 C 132.679 62.294,133.174 62.000,133.266 62.000 C 133.476 62.000,134.499 60.958,134.502 60.742 C 134.503 60.655,134.840 60.101,135.252 59.512 C 135.663 58.923,136.000 58.275,136.000 58.072 C 136.000 57.869,136.148 57.376,136.330 56.977 C 136.847 55.837,136.850 28.697,136.333 27.917 C 136.151 27.642,136.002 27.243,136.001 27.030 C 135.998 26.106,133.073 22.667,132.291 22.667 C 132.114 22.667,131.779 22.517,131.545 22.333 C 131.312 22.150,130.912 22.000,130.655 22.000 C 130.398 22.000,129.564 21.851,128.802 21.668 C 127.522 21.361,126.057 21.269,125.250 21.445 M179.234 21.664 C 169.727 21.766,170.667 21.493,170.667 24.154 C 170.667 26.670,170.413 26.500,174.171 26.500 L 177.275 26.500 177.679 26.930 L 178.083 27.360 178.128 43.875 C 178.160 55.611,178.226 60.454,178.357 60.612 C 178.611 60.918,183.640 60.930,184.049 60.625 C 184.307 60.433,184.332 59.134,184.373 43.861 L 184.417 27.306 184.961 26.820 L 185.505 26.333 188.580 26.333 C 192.233 26.333,192.000 26.494,192.000 23.965 C 192.000 21.465,192.027 21.490,189.366 21.539 C 188.202 21.560,183.643 21.616,179.234 21.664 M198.173 21.822 C 197.908 22.317,197.935 60.201,198.200 60.467 C 198.339 60.606,199.237 60.667,201.167 60.667 C 203.096 60.667,203.994 60.606,204.133 60.467 C 204.283 60.317,204.333 58.352,204.333 52.652 C 204.333 45.405,204.349 45.018,204.652 44.643 C 204.968 44.252,204.994 44.250,209.360 44.167 L 213.750 44.083 213.797 41.835 C 213.857 38.924,214.278 39.167,209.164 39.167 C 203.736 39.167,204.333 39.965,204.333 32.710 L 204.333 27.024 204.772 26.679 C 205.196 26.346,205.402 26.333,210.497 26.333 C 216.853 26.333,216.333 26.546,216.333 23.945 C 216.333 21.236,217.339 21.500,207.006 21.500 C 198.614 21.500,198.340 21.510,198.173 21.822 M236.250 22.060 C 236.892 22.225,237.529 22.429,237.667 22.514 C 237.804 22.599,238.104 22.762,238.333 22.875 C 239.592 23.496,240.600 24.413,241.159 25.447 C 241.349 25.797,241.572 26.196,241.656 26.333 C 241.974 26.854,242.371 28.293,242.506 29.417 C 242.688 30.936,242.685 53.496,242.502 54.583 C 241.829 58.582,239.341 60.858,235.284 61.185 C 233.088 61.362,229.604 61.147,228.911 60.793 C 228.639 60.654,228.172 60.488,227.873 60.423 C 226.932 60.220,223.667 57.377,223.667 56.760 C 223.667 56.699,223.503 56.296,223.302 55.866 C 222.850 54.894,222.477 34.003,222.834 29.622 C 223.160 25.622,225.269 22.858,228.513 22.180 C 229.010 22.076,229.529 21.917,229.667 21.827 C 230.093 21.547,234.917 21.718,236.250 22.060 M148.050 21.981 C 145.624 22.055,144.622 22.144,144.466 22.300 C 144.145 22.622,144.061 61.791,144.380 62.228 C 144.580 62.501,144.733 62.511,146.209 62.346 C 147.095 62.248,148.346 62.167,148.988 62.167 C 150.602 62.167,150.500 62.718,150.500 54.000 C 150.500 49.368,150.563 46.360,150.665 46.171 C 151.443 44.716,155.561 44.851,157.135 46.384 C 158.639 47.848,158.567 47.484,158.664 54.166 C 158.744 59.652,158.774 60.132,159.083 60.750 L 159.417 61.417 161.667 61.467 C 165.468 61.553,165.746 61.437,165.272 59.970 C 165.043 59.262,164.999 58.250,164.996 53.606 C 164.994 50.568,164.922 47.821,164.836 47.500 C 164.320 45.580,164.076 45.117,163.012 44.042 C 162.421 43.445,161.689 42.853,161.385 42.726 C 160.497 42.355,160.625 41.821,161.792 41.025 C 163.145 40.101,164.089 38.938,164.281 37.960 C 164.339 37.661,164.506 37.233,164.652 37.007 C 165.056 36.383,165.047 27.780,164.641 27.167 C 164.490 26.938,164.317 26.514,164.257 26.226 C 164.197 25.937,164.002 25.569,163.824 25.408 C 163.646 25.247,163.500 24.985,163.500 24.827 C 163.500 24.500,162.283 23.333,161.942 23.333 C 161.818 23.333,161.545 23.183,161.333 23.000 C 161.122 22.817,160.806 22.667,160.632 22.667 C 160.458 22.667,159.989 22.518,159.590 22.336 C 158.737 21.948,153.956 21.801,148.050 21.981 M250.875 22.292 C 250.624 22.828,250.829 61.639,251.084 61.894 C 251.224 62.033,251.961 62.158,253.067 62.230 C 254.035 62.292,255.222 62.416,255.705 62.504 C 256.188 62.593,258.513 62.735,260.872 62.820 C 263.230 62.906,265.223 63.015,265.301 63.063 C 265.562 63.225,268.361 63.514,268.681 63.412 C 269.078 63.286,269.178 58.852,268.792 58.538 C 268.394 58.215,265.437 57.833,263.330 57.833 C 259.473 57.833,258.264 57.688,257.677 57.152 L 257.167 56.685 257.167 50.370 C 257.167 35.472,256.956 22.480,256.711 22.234 C 256.322 21.845,251.060 21.897,250.875 22.292 M275.330 22.254 C 274.913 22.757,274.962 63.367,275.380 63.786 C 275.817 64.223,280.963 64.337,281.271 63.917 C 281.504 63.597,281.392 22.525,281.157 22.269 C 280.856 21.942,275.600 21.928,275.330 22.254 M295.250 22.342 C 294.883 22.516,294.421 22.660,294.223 22.662 C 293.196 22.675,289.802 26.154,289.579 27.423 C 289.515 27.786,289.340 28.271,289.190 28.500 C 288.756 29.162,288.774 57.989,289.208 58.783 C 289.369 59.077,289.500 59.490,289.500 59.701 C 289.500 60.137,290.213 61.575,290.686 62.094 C 290.859 62.283,291.000 62.548,291.000 62.683 C 291.000 63.017,292.859 64.833,293.201 64.833 C 293.352 64.833,293.577 64.935,293.701 65.058 C 294.088 65.445,295.898 66.333,296.300 66.333 C 296.511 66.333,296.923 66.463,297.217 66.622 C 297.989 67.039,303.867 67.058,304.500 66.645 C 304.729 66.495,305.118 66.326,305.364 66.269 C 305.892 66.147,308.500 63.679,308.500 63.302 C 308.500 63.158,308.607 62.952,308.737 62.844 C 308.867 62.736,309.026 62.333,309.090 61.949 C 309.154 61.564,309.328 61.025,309.478 60.750 C 309.891 59.991,309.894 30.352,309.482 29.583 C 309.334 29.308,309.164 28.762,309.104 28.369 C 309.042 27.965,308.745 27.301,308.421 26.840 C 308.106 26.391,307.743 25.774,307.615 25.468 C 307.330 24.785,306.423 23.969,305.339 23.420 C 304.891 23.192,304.476 22.930,304.419 22.837 C 304.361 22.743,304.112 22.665,303.865 22.663 C 303.618 22.661,303.090 22.511,302.690 22.330 C 301.633 21.850,296.271 21.859,295.250 22.342 M130.516 22.543 C 130.736 22.681,131.121 22.841,131.371 22.899 C 133.178 23.318,135.228 25.867,135.943 28.583 C 136.306 29.963,136.503 53.079,136.166 54.738 C 136.071 55.203,135.894 56.113,135.772 56.760 C 135.649 57.407,135.412 58.157,135.245 58.427 C 133.842 60.688,133.466 61.161,132.653 61.688 C 131.056 62.722,130.255 63.130,129.608 63.237 C 129.254 63.295,128.730 63.464,128.443 63.613 C 128.017 63.833,127.364 63.883,124.919 63.881 C 121.688 63.878,121.552 63.848,119.544 62.689 C 118.304 61.973,116.925 59.960,116.745 58.601 C 116.683 58.133,116.527 57.340,116.399 56.840 C 115.971 55.164,116.067 32.913,116.515 30.102 C 116.979 27.189,118.135 24.998,119.725 24.016 C 120.022 23.832,120.436 23.533,120.646 23.351 C 120.856 23.169,121.265 22.970,121.555 22.908 C 121.846 22.846,122.178 22.718,122.294 22.625 C 122.913 22.126,129.741 22.058,130.516 22.543 M191.417 24.083 L 191.417 25.917 188.047 26.000 C 185.104 26.073,184.640 26.121,184.381 26.381 C 184.100 26.661,184.079 27.646,184.000 43.464 L 183.917 60.250 181.667 60.337 C 180.429 60.385,179.286 60.395,179.127 60.360 C 178.855 60.300,178.835 59.295,178.794 43.652 L 178.750 27.008 178.288 26.545 L 177.827 26.083 174.538 26.000 L 171.250 25.917 171.250 24.167 L 171.250 22.417 173.583 22.325 C 174.867 22.275,179.404 22.238,183.667 22.242 L 191.417 22.250 191.417 24.083 M215.583 24.083 L 215.583 25.917 210.094 25.961 C 205.279 25.999,204.567 26.038,204.302 26.278 C 203.796 26.736,203.841 38.804,204.350 39.266 C 204.671 39.556,205.045 39.588,208.767 39.636 C 213.531 39.697,213.206 39.536,213.131 41.793 L 213.083 43.250 209.088 43.295 L 205.093 43.340 204.546 43.869 L 204.000 44.399 204.000 51.762 C 204.000 55.812,203.953 59.359,203.896 59.646 L 203.792 60.167 201.392 60.167 C 199.027 60.167,198.990 60.161,198.843 59.776 C 198.616 59.179,198.834 22.448,199.066 22.293 C 199.167 22.225,202.925 22.188,207.417 22.210 L 215.583 22.250 215.583 24.083 M158.095 22.569 C 158.547 22.699,159.251 22.858,159.659 22.923 C 160.068 22.988,160.593 23.170,160.826 23.328 C 161.059 23.486,161.561 23.810,161.941 24.048 C 164.074 25.386,165.392 32.153,164.249 35.901 C 164.112 36.351,164.000 36.923,164.000 37.171 C 164.000 37.419,163.850 37.812,163.667 38.045 C 163.483 38.279,163.333 38.554,163.333 38.658 C 163.333 38.943,161.824 40.500,161.548 40.500 C 161.139 40.500,160.333 41.439,160.333 41.915 C 160.333 42.576,160.596 42.944,161.405 43.419 C 164.117 45.008,164.532 46.520,164.562 54.928 L 164.583 60.917 162.281 61.066 C 159.150 61.270,159.459 61.915,159.394 55.041 C 159.352 50.516,159.291 49.254,159.087 48.677 C 158.948 48.282,158.833 47.827,158.833 47.667 C 158.833 47.083,157.524 45.705,156.467 45.177 C 155.039 44.463,151.499 44.397,150.718 45.069 L 150.250 45.471 150.167 53.472 C 150.121 57.872,150.023 61.532,149.950 61.606 C 149.877 61.679,148.752 61.741,147.450 61.744 L 145.083 61.750 145.040 42.250 C 145.017 31.525,145.033 22.656,145.077 22.542 C 145.199 22.220,156.966 22.245,158.095 22.569 M256.352 30.083 C 256.408 34.300,256.464 42.067,256.477 47.342 L 256.500 56.935 257.067 57.484 L 257.633 58.033 260.030 58.175 C 261.349 58.252,262.538 58.358,262.673 58.410 C 262.808 58.462,264.066 58.567,265.467 58.644 C 268.516 58.810,268.357 58.686,268.298 60.848 L 268.250 62.583 265.250 62.527 C 263.600 62.496,261.462 62.360,260.500 62.225 C 259.537 62.089,257.325 61.942,255.583 61.898 C 253.842 61.854,252.173 61.780,251.875 61.735 L 251.333 61.652 251.333 41.988 L 251.333 22.324 253.792 22.371 L 256.250 22.417 256.352 30.083 M300.954 22.569 C 301.433 22.697,302.209 22.854,302.679 22.918 C 305.444 23.299,308.383 26.521,308.834 29.667 C 308.920 30.262,309.067 31.154,309.162 31.648 C 309.388 32.831,309.389 57.809,309.162 58.790 C 309.073 59.178,308.930 59.984,308.846 60.580 C 308.556 62.622,306.323 65.618,304.857 65.930 C 304.615 65.981,304.058 66.133,303.620 66.267 C 302.687 66.552,299.704 66.595,298.833 66.336 C 298.512 66.241,297.797 66.090,297.244 66.001 C 296.363 65.859,295.838 65.638,293.829 64.570 C 292.230 63.719,289.833 60.330,289.833 58.918 C 289.833 58.679,289.719 57.980,289.580 57.366 C 289.203 55.706,289.314 30.673,289.706 28.917 C 290.339 26.083,292.912 23.400,295.494 22.884 C 296.093 22.764,296.846 22.599,297.167 22.517 C 298.069 22.286,299.990 22.312,300.954 22.569 M89.833 22.830 C 89.551 23.008,89.443 67.166,89.723 67.444 C 89.932 67.651,92.337 67.580,93.047 67.345 C 93.386 67.233,94.126 67.076,94.692 66.996 C 96.083 66.800,95.995 67.398,95.997 58.143 C 96.000 50.753,96.028 49.858,96.264 49.768 C 96.409 49.712,97.290 49.667,98.222 49.667 C 99.418 49.667,100.261 49.568,101.083 49.333 C 101.724 49.150,102.512 49.000,102.833 48.999 C 103.154 48.998,103.642 48.849,103.917 48.667 C 104.192 48.485,104.574 48.335,104.766 48.334 C 104.958 48.334,105.249 48.185,105.413 48.004 C 105.577 47.823,105.869 47.627,106.064 47.567 C 106.708 47.370,107.797 46.347,108.159 45.599 C 108.356 45.193,108.621 44.774,108.748 44.669 C 108.875 44.563,109.031 44.239,109.094 43.949 C 109.158 43.659,109.313 43.265,109.438 43.073 C 110.364 41.661,110.285 29.601,109.339 27.756 C 109.152 27.393,109.000 26.990,109.000 26.859 C 109.000 26.170,105.652 23.333,104.839 23.333 C 104.645 23.333,104.193 23.183,103.833 23.000 C 103.109 22.630,90.394 22.476,89.833 22.830 M280.495 23.157 C 280.613 23.377,280.654 29.926,280.626 43.615 L 280.583 63.750 279.929 63.804 C 279.381 63.848,277.370 63.570,275.875 63.242 L 275.500 63.160 275.500 43.108 C 275.500 32.079,275.550 23.006,275.611 22.944 C 275.918 22.637,280.319 22.829,280.495 23.157 M102.469 23.335 C 103.231 23.517,103.967 23.667,104.104 23.667 C 104.974 23.667,107.170 25.335,108.315 26.866 C 109.309 28.196,110.045 38.380,109.352 41.223 C 108.610 44.265,107.506 46.056,105.750 47.067 C 105.292 47.330,104.804 47.640,104.667 47.755 C 104.529 47.869,104.155 48.019,103.836 48.087 C 103.516 48.155,103.104 48.305,102.919 48.422 C 102.734 48.538,101.908 48.680,101.083 48.738 C 99.336 48.862,96.367 49.311,95.988 49.510 C 95.401 49.817,95.333 50.767,95.333 58.648 L 95.333 66.342 94.906 66.504 C 94.671 66.594,94.047 66.667,93.520 66.667 C 92.993 66.667,92.130 66.746,91.602 66.844 C 90.883 66.977,90.583 66.972,90.405 66.824 C 90.015 66.500,90.050 23.971,90.441 23.645 C 90.637 23.482,91.716 23.365,94.233 23.237 C 99.857 22.949,100.913 22.961,102.469 23.335 M231.583 25.446 C 231.400 25.498,231.102 25.644,230.921 25.770 C 230.740 25.897,230.470 26.000,230.321 26.000 C 229.974 26.000,229.139 26.796,228.545 27.694 L 228.083 28.392 228.083 41.405 L 228.083 54.417 228.687 55.333 C 229.740 56.932,230.705 57.417,232.840 57.417 C 234.745 57.417,234.489 57.511,236.169 56.194 C 236.443 55.979,236.667 55.716,236.667 55.608 C 236.667 55.500,236.835 55.113,237.042 54.748 L 237.417 54.083 237.417 41.750 L 237.417 29.417 236.941 28.250 C 236.396 26.914,236.018 26.441,235.275 26.165 C 234.986 26.058,234.538 25.857,234.279 25.718 C 233.782 25.452,232.148 25.287,231.583 25.446 M124.833 26.417 C 124.604 26.548,124.290 26.658,124.134 26.661 C 123.682 26.670,122.186 28.305,122.010 28.981 C 121.924 29.312,121.771 29.921,121.671 30.333 C 121.328 31.748,121.356 55.379,121.702 56.554 C 123.065 61.184,129.331 60.934,130.677 56.197 C 131.056 54.863,131.372 31.887,131.029 30.583 C 130.932 30.217,130.763 29.579,130.652 29.167 C 130.394 28.201,129.443 27.025,128.681 26.726 C 128.352 26.597,127.953 26.418,127.794 26.329 C 127.354 26.082,125.313 26.142,124.833 26.417 M150.991 26.590 C 150.170 27.196,150.191 27.010,150.178 33.617 C 150.163 41.286,150.009 40.928,153.288 40.801 C 157.894 40.624,159.157 39.120,159.285 33.659 C 159.424 27.734,158.260 26.209,153.574 26.179 C 151.674 26.167,151.534 26.190,150.991 26.590 M234.941 26.636 C 236.733 27.551,236.790 28.005,236.843 41.750 C 236.897 55.523,236.978 54.969,234.667 56.537 C 233.778 57.140,231.907 57.269,231.351 56.766 C 231.189 56.620,230.966 56.500,230.854 56.500 C 230.589 56.500,229.000 54.911,229.000 54.646 C 229.000 54.534,228.869 54.298,228.708 54.121 C 228.437 53.821,228.413 52.945,228.369 41.623 L 228.321 29.447 228.842 28.398 C 229.373 27.330,230.208 26.518,230.996 26.301 C 231.848 26.066,234.218 26.268,234.941 26.636 M128.789 27.456 C 129.226 27.725,129.611 28.088,129.645 28.263 C 129.679 28.438,129.848 28.761,130.020 28.980 C 130.321 29.362,130.333 29.915,130.333 42.684 L 130.333 55.990 129.833 56.975 C 128.837 58.935,125.690 59.962,124.035 58.868 C 123.787 58.704,123.433 58.490,123.250 58.392 C 123.067 58.294,122.890 58.072,122.858 57.899 C 122.826 57.725,122.656 57.427,122.481 57.236 C 122.170 56.899,122.162 56.493,122.205 43.153 L 122.250 29.417 122.776 28.667 C 124.106 26.771,126.793 26.230,128.789 27.456 M156.758 27.310 C 157.008 27.506,157.305 27.667,157.419 27.667 C 157.533 27.667,157.842 28.092,158.105 28.612 L 158.583 29.558 158.583 33.404 C 158.583 37.754,158.593 37.714,157.135 39.099 C 155.932 40.243,151.743 40.618,150.931 39.654 L 150.500 39.141 150.501 33.612 C 150.503 26.413,150.302 26.796,154.027 26.894 C 156.050 26.947,156.356 26.994,156.758 27.310 M297.044 27.347 C 294.507 28.532,294.504 28.548,294.505 44.000 C 294.506 58.017,294.512 58.106,295.550 59.873 C 296.564 61.598,299.603 62.602,301.278 61.764 C 301.537 61.634,301.954 61.450,302.202 61.354 C 302.823 61.114,303.395 60.144,303.814 58.616 C 304.712 55.341,304.260 30.602,303.275 29.097 C 302.764 28.319,301.883 27.519,301.408 27.403 C 301.138 27.337,300.769 27.182,300.588 27.058 C 299.995 26.652,298.224 26.797,297.044 27.347 M96.463 27.842 C 95.536 28.332,95.551 28.215,95.453 35.974 C 95.333 45.473,95.164 45.103,99.343 44.516 C 102.104 44.128,102.923 43.637,103.843 41.815 L 104.333 40.843 104.333 35.911 L 104.333 30.979 103.890 30.031 C 103.314 28.801,102.868 28.364,101.704 27.890 C 100.403 27.360,97.428 27.333,96.463 27.842 M300.462 27.649 C 301.504 27.798,302.292 28.460,302.928 29.722 L 303.333 30.527 303.333 44.779 C 303.333 58.778,303.327 59.038,303.000 59.455 C 302.817 59.688,302.666 59.999,302.665 60.147 C 302.663 60.574,301.398 61.192,300.329 61.289 C 298.154 61.487,296.627 60.774,295.808 59.181 L 295.345 58.278 295.297 44.181 L 295.250 30.083 295.703 29.276 C 296.515 27.830,298.049 27.306,300.462 27.649 M101.135 28.317 C 103.296 28.624,103.717 29.795,103.791 35.698 C 103.860 41.295,103.670 41.983,101.667 43.390 L 100.917 43.917 98.500 43.917 L 96.083 43.917 96.083 36.167 L 96.083 28.417 97.500 28.323 C 99.643 28.181,100.171 28.180,101.135 28.317 " stroke="none" fill="#930b0b" fill-rule="evenodd"></path></g></svg>